<svg width="21" height="21" viewBox="0 0 21 21" fill="none" xmlns="http://www.w3.org/2000/svg">
<path d="M20.05 7.27904V10.404C20.05 10.836 19.7 11.186 19.269 11.186H18.755L18.426 14.115C18.381 14.514 18.043 14.809 17.65 14.809C17.621 14.809 17.592 14.807 17.562 14.804C17.133 14.755 16.825 14.369 16.873 13.94L17.28 10.317C17.324 9.92204 17.659 9.62304 18.056 9.62304H18.488V8.06104H1.61199V9.62304H14.933C15.364 9.62304 15.714 9.97304 15.714 10.404C15.714 10.836 15.364 11.186 14.933 11.186H2.93199L3.70299 17.621C3.79699 18.406 4.46399 18.997 5.25499 18.997H14.908C15.704 18.997 16.372 18.401 16.461 17.61C16.509 17.181 16.895 16.872 17.324 16.921C17.753 16.969 18.061 17.355 18.014 17.784C17.836 19.366 16.501 20.56 14.908 20.56H5.25499C3.67399 20.56 2.33999 19.376 2.15199 17.807L1.35799 11.186H0.830988C0.399988 11.186 0.0499878 10.836 0.0499878 10.404V7.27904C0.0499878 6.84804 0.399988 6.49804 0.830988 6.49804H3.60199L7.72999 0.880037C7.98599 0.532037 8.47499 0.457037 8.82299 0.713037C9.16999 0.968037 9.24499 1.45704 8.98999 1.80504L5.54099 6.49804H14.588L11.139 1.80504C10.884 1.45704 10.958 0.968037 11.306 0.713037C11.654 0.457037 12.143 0.532037 12.398 0.880037L16.527 6.49804H19.269C19.7 6.49804 20.05 6.84804 20.05 7.27904ZM9.26899 13.529V16.654C9.26899 17.085 9.61799 17.435 10.05 17.435C10.481 17.435 10.831 17.085 10.831 16.654V13.529C10.831 13.098 10.481 12.748 10.05 12.748C9.61799 12.748 9.26899 13.098 9.26899 13.529ZM12.394 13.529V16.654C12.394 17.085 12.744 17.435 13.175 17.435C13.606 17.435 13.956 17.085 13.956 16.654V13.529C13.956 13.098 13.606 12.748 13.175 12.748C12.744 12.748 12.394 13.098 12.394 13.529ZM6.14399 13.529V16.654C6.14399 17.085 6.49399 17.435 6.92499 17.435C7.35599 17.435 7.70599 17.085 7.70599 16.654V13.529C7.70599 13.098 7.35599 12.748 6.92499 12.748C6.49399 12.748 6.14399 13.098 6.14399 13.529Z" fill="#3B4964"/>
</svg>
