<svg width="43" height="36" viewBox="0 0 43 36" fill="none" xmlns="http://www.w3.org/2000/svg">
<g clip-path="url(#clip0_12_2188)">
<path d="M21.5234 28.3535C20.1716 28.3824 18.8608 28.1574 17.6143 27.6845C16.9472 27.4308 16.4264 27.5058 15.8529 27.8691C15.1741 28.2958 14.4718 28.688 13.7462 29.0283C12.7865 29.4781 11.9379 28.9245 12.3125 27.9844C13.202 25.7699 12.3242 24.1436 11.2299 22.2405C8.08151 16.7964 10.1882 9.90484 15.6773 6.79642C20.985 3.79181 28.1419 5.50461 31.3546 10.5507C34.7722 15.9314 33.3385 22.8979 28.0717 26.41C26.0996 27.7191 23.8876 28.3074 21.5234 28.3535ZM21.4707 18.9994C22.6704 19.0167 23.6711 18.0536 23.6886 16.8656C23.7062 15.6834 22.7289 14.6799 21.5293 14.6626C20.3355 14.6453 19.3231 15.62 19.3114 16.8022C19.2938 17.9902 20.2711 18.9821 21.4707 18.9994ZM27.4221 18.9994C28.6276 19.011 29.6049 18.0536 29.6166 16.8483C29.6283 15.6488 28.6569 14.6684 27.4573 14.6626C26.2576 14.6569 25.2628 15.6315 25.2511 16.8195C25.2452 18.0075 26.2167 18.9879 27.4221 18.9994ZM17.7489 16.7791C17.7196 15.5911 16.7131 14.6338 15.5135 14.6626C14.3138 14.6915 13.36 15.6834 13.3892 16.8829C13.4185 18.0882 14.4075 19.0283 15.6188 18.9994C16.8126 18.9706 17.7782 17.9671 17.7489 16.7791Z" fill="url(#paint0_linear_12_2188)"/>
<path d="M21.4648 0.169944C28.651 0.15841 35.0004 4.55864 37.3938 11.2426C37.622 11.8712 37.8912 12.1653 38.611 12.2461C40.3959 12.4479 41.5194 13.6129 42.1514 15.1469C43.4974 18.3995 43.2809 21.5713 41.2444 24.5125C40.0038 26.306 38.5349 26.802 36.4224 26.2195C35.8196 26.0523 35.5036 26.133 35.1233 26.6463C32.9054 29.6451 29.9677 31.6751 26.3746 32.7651C25.8128 32.9323 25.4968 33.1284 25.4325 33.7801C25.3388 34.6509 24.6893 35.1065 23.8232 35.1238C22.2841 35.1584 20.7392 35.1757 19.2002 35.1238C17.9771 35.0777 17.468 34.351 17.4972 32.8747C17.5265 31.5771 18.0649 30.9716 19.2879 30.9197C20.0896 30.8851 20.8972 30.9081 21.7048 30.9081C27.3051 30.9024 32.7357 27.5979 34.6083 22.396C36.5453 17.0154 36.3697 11.6751 32.0334 7.2403C27.902 3.01885 22.8518 1.54826 17.1637 3.3764C11.3352 5.25068 8.02296 9.3914 7.24465 15.4237C7.09835 16.5771 7.46117 17.6844 7.60747 18.8032C7.82399 20.4814 8.11659 22.148 8.34481 23.8205C8.55548 25.3257 8.21607 25.8043 6.72383 26.2138C4.57617 26.8078 2.96104 26.2772 1.70872 24.4375C-0.228268 21.5886 -0.485753 18.5033 0.766561 15.3487C1.45709 13.6244 2.77377 12.4248 4.72247 12.1653C5.413 12.0731 5.4364 11.6059 5.59441 11.1792C8.02296 4.56441 14.3255 0.181479 21.4648 0.169944Z" fill="url(#paint1_linear_12_2188)"/>
</g>
<defs>
<linearGradient id="paint0_linear_12_2188" x1="21.4839" y1="5.31299" x2="21.4839" y2="29.1873" gradientUnits="userSpaceOnUse">
<stop stop-color="#FB47BF"/>
<stop offset="1" stop-color="#B40B7C"/>
</linearGradient>
<linearGradient id="paint1_linear_12_2188" x1="21.5003" y1="0.169922" x2="21.5003" y2="35.1566" gradientUnits="userSpaceOnUse">
<stop stop-color="#FFBC6C"/>
<stop offset="1" stop-color="#FF9110"/>
</linearGradient>
<clipPath id="clip0_12_2188">
<rect width="43" height="35" fill="white" transform="translate(0 0.169922)"/>
</clipPath>
</defs>
</svg>
