<svg width="41" height="23" viewBox="0 0 41 23" fill="none" xmlns="http://www.w3.org/2000/svg">
<g clip-path="url(#clip0_12_2135)">
<path d="M15.646 0.684929C19.0781 0.684929 22.5102 0.699817 25.9369 0.67004C26.6178 0.665078 26.863 0.813961 26.8412 1.47401C26.7922 3.25069 26.8194 5.03232 26.8249 6.809C26.8303 7.95044 27.2062 8.28791 28.481 8.29287C31.2321 8.29783 33.9832 8.28791 36.7344 8.29783C39.5236 8.30776 40.9891 9.65763 40.9891 12.1986C40.9891 14.0844 40.9945 15.9703 40.9891 17.8561C40.9836 18.9877 40.5969 19.3301 39.333 19.34C39.1859 19.34 39.0333 19.3549 38.8917 19.34C38.1018 19.2308 37.6714 19.4442 37.3282 20.2085C36.5873 21.8661 35.0728 22.6552 33.1225 22.67C31.2594 22.68 29.5651 21.6378 28.9223 20.0497C28.6935 19.4889 28.4047 19.3251 27.7782 19.3301C24.2862 19.3549 20.7996 19.3549 17.3076 19.3301C16.7083 19.3251 16.4468 19.4889 16.2289 20.01C15.5371 21.6725 13.8809 22.67 11.9742 22.675C10.0511 22.68 8.34599 21.6427 7.65957 19.9604C7.45256 19.4542 7.18017 19.3152 6.62994 19.3351C3.78075 19.4343 3.81344 19.211 3.84612 16.7941C3.86791 14.9926 3.85157 14.9926 1.85224 14.9827C1.70515 14.9827 1.55806 14.9877 1.41097 14.9827C0.555664 14.9529 0.0272294 14.5559 -9.51625e-06 13.9306C-0.0272484 13.2755 0.528425 12.809 1.41641 12.804C4.70143 12.7941 7.98099 12.7991 11.266 12.7991C11.5602 12.7991 11.8598 12.809 12.1485 12.7643C12.7805 12.6651 13.1727 12.3226 13.1782 11.7271C13.1891 11.1316 12.8077 10.7743 12.1812 10.6651C11.8925 10.6154 11.5929 10.6254 11.2987 10.6254C8.0736 10.6254 4.85396 10.6254 1.62888 10.6254C1.21485 10.6254 0.789919 10.6502 0.452156 10.3673C0.0762594 10.0547 -0.114413 9.67252 0.0653639 9.20602C0.266932 8.69485 0.686411 8.44175 1.29111 8.43679C2.76746 8.43679 4.24926 8.43679 5.72561 8.43183C6.58091 8.43183 7.44166 8.45168 8.29696 8.4219C9.16316 8.39709 9.63711 7.97525 9.60988 7.30031C9.57719 6.50627 8.99428 6.34746 8.26972 6.34746C6.43382 6.35242 4.60337 6.35242 2.76746 6.34746C1.78141 6.3425 1.22574 5.95044 1.2094 5.26557C1.19305 4.5559 1.76507 4.0894 2.80015 4.15391C3.65545 4.20354 3.89515 3.97029 3.87881 3.18121C3.82433 0.684929 3.86247 0.684929 6.59181 0.684929C9.60988 0.684929 12.6279 0.684929 15.646 0.684929ZM35.3615 18.4914C35.3561 17.3549 34.4027 16.5063 33.1606 16.5212C31.9185 16.541 30.9761 17.4194 31.0033 18.541C31.0251 19.603 31.9894 20.4616 33.1715 20.4765C34.3973 20.4914 35.367 19.613 35.3615 18.4914ZM11.9797 20.4815C13.1891 20.4864 14.1751 19.5733 14.1533 18.4715C14.1315 17.3797 13.2 16.536 12.0015 16.5311C10.7648 16.5212 9.77331 17.3946 9.76786 18.4914C9.76241 19.5683 10.7703 20.4765 11.9797 20.4815Z" fill="url(#paint0_linear_12_2135)"/>
<path d="M32.4797 6.11913C31.6243 6.11913 30.769 6.09432 29.9137 6.12906C29.3635 6.14891 29.2001 5.96033 29.211 5.47397C29.2382 4.18365 29.2546 2.89333 29.2055 1.60301C29.1837 0.928068 29.4779 0.918142 30.0499 1.08191C32.0002 1.63775 33.4385 2.77918 34.5716 4.28291C34.9039 4.72459 35.2035 5.1911 35.525 5.64271C35.7701 5.9901 35.6448 6.11913 35.2253 6.11913C34.3101 6.11417 33.3949 6.11417 32.4797 6.11913Z" fill="#FF9110"/>
</g>
<defs>
<linearGradient id="paint0_linear_12_2135" x1="20.4943" y1="0.669922" x2="20.4943" y2="22.675" gradientUnits="userSpaceOnUse">
<stop stop-color="#FB47BF"/>
<stop offset="1" stop-color="#B40B7C"/>
</linearGradient>
<clipPath id="clip0_12_2135">
<rect width="41" height="22" fill="white" transform="translate(0 0.669922)"/>
</clipPath>
</defs>
</svg>
