<svg width="140" height="68" viewBox="0 0 140 68" fill="none" xmlns="http://www.w3.org/2000/svg">
<path d="M80.0483 45.2375C80.2572 44.6381 80.4772 44.0498 80.6641 43.4449C81.9783 39.1615 83.5014 34.9551 85.019 30.7432C86.5256 26.5533 88.1366 22.4129 89.8797 18.3165C91.2653 15.0613 92.7225 11.8337 94.6909 8.88645C95.6367 7.46782 96.5165 5.91172 98.221 5.15842C99.8156 4.4546 101.603 5.10343 102.251 6.71451C103.076 8.75998 103.032 10.8769 102.675 13.0104C102.477 14.1816 102.317 15.3583 102.07 16.5185C101.163 20.7469 99.9916 24.9093 98.8094 29.0717C97.5887 33.3771 96.5055 37.7154 95.3343 42.0318C94.9604 43.4174 94.636 44.8086 94.4765 46.2272C94.438 46.5626 94.273 47.0685 94.7019 47.2004C95.0813 47.3159 95.1858 46.81 95.3508 46.5461C96.2305 45.1385 96.7144 43.5494 97.2533 41.9988C99.1448 36.5607 100.932 31.0842 102.818 25.6406C104.632 20.4004 106.584 15.2098 109.152 10.2831C110.01 8.63351 110.95 7.01143 112.418 5.81275C114.739 3.91024 116.454 5.20791 117.18 7.47331C117.719 9.15588 117.774 10.8934 117.642 12.631C117.395 15.8476 116.867 19.0368 116.163 22.182C115.058 27.1472 113.815 32.0794 112.633 37.0281C111.594 41.383 110.571 45.7378 109.642 50.1147C109.251 51.9622 108.861 53.8042 108.503 55.6627C108.322 56.6085 108.08 56.7075 107.31 56.1411C105.265 54.6455 105.144 55.1569 105.721 52.4241C107.294 44.968 109.114 37.5725 110.961 30.1824C112.407 24.3869 113.941 18.6134 114.997 12.7299C115.289 11.0969 115.316 9.4583 115.289 7.81423C115.278 7.1599 115.217 6.45608 114.563 6.14816C113.853 5.81825 113.194 6.17565 112.622 6.62654C111.544 7.47331 110.879 8.64451 110.213 9.8102C107.997 13.6922 106.425 17.8491 104.896 22.028C103.17 26.7458 101.586 31.513 99.9696 36.2693C98.5399 40.4757 97.1048 44.6876 95.2793 48.7455C94.7239 49.9827 94.1961 51.2804 93.0964 52.1931C92.695 52.5231 92.2881 52.9025 91.7107 52.6C91.1719 52.3251 91.0619 51.7862 91.0674 51.2694C91.0949 49.7463 91.1444 48.2177 91.4028 46.7166C92.585 39.9203 94.405 33.2836 96.2085 26.6358C97.0718 23.4576 97.9901 20.296 98.6884 17.0793C99.2382 14.5555 99.9091 12.0481 100.195 9.46379C100.288 8.61152 100.365 7.75924 100.135 6.91796C99.8816 5.9832 99.2602 5.68628 98.397 6.11517C97.5007 6.56055 96.8519 7.29186 96.2525 8.06716C94.0476 10.9154 92.5795 14.1761 91.1389 17.4312C89.1374 21.94 87.3614 26.5478 85.7008 31.1996C84.1777 35.472 82.6876 39.7554 81.2964 44.0773C80.4552 46.6836 79.5314 49.2624 78.7891 51.9017C78.6351 52.4406 78.3052 52.7155 77.7224 52.6935C77.112 52.6715 76.5017 52.6935 75.8913 52.688C75.2535 52.6825 75.0336 52.4021 75.1875 51.7533C76.3917 46.7166 77.6069 41.6854 78.7506 36.6377C79.6304 32.7447 80.5266 28.8572 81.3184 24.9478C82.1707 20.7359 83.001 16.524 83.5289 12.2626C83.7323 10.624 83.6938 8.97442 83.6058 7.33585C83.5728 6.7805 83.4134 6.19765 82.7811 6.03269C82.1487 5.86773 81.7473 6.30762 81.4174 6.7585C80.0978 8.57853 79.2125 10.6185 78.4262 12.7024C77.1395 16.1226 75.8089 19.5317 74.8961 23.0782C74.7861 23.5181 74.5992 23.8205 74.0768 23.6721C73.6974 23.5676 73.1971 23.6501 73.362 22.9243C73.472 22.4404 72.9441 22.1435 72.6857 21.7861C72.3613 21.3352 72.1853 20.9008 72.3998 20.3455C73.7964 16.7714 75.1271 13.1643 77.0625 9.8267C77.8873 8.40257 78.7946 7.02793 80.1032 5.97221C80.7851 5.42235 81.5824 5.10343 82.4236 4.94947C83.6663 4.72403 84.7825 5.38936 85.4204 6.71451C85.9537 7.81972 86.2616 8.99092 86.3496 10.2226C86.5916 13.5877 86.1792 16.8979 85.5853 20.208C85.1069 22.8748 84.6066 25.5361 83.9962 28.1754C82.99 32.5028 82.0772 36.8466 80.8731 41.1245C80.4992 42.4552 80.0428 43.7913 80.0483 45.2375Z" fill="white"/>
<path d="M14.2308 24.8704C13.5929 24.8704 12.9496 24.9034 12.3118 24.8594C11.509 24.8044 11.1791 25.1838 11.0196 25.9316C10.3488 29.1208 9.64498 32.3044 8.94116 35.4881C7.73148 40.9647 6.5108 46.4357 5.28462 51.9068C5.11416 52.6601 5.10317 53.4244 5.17465 54.1777C5.25163 54.953 5.741 55.2774 6.5163 55.1565C7.50604 54.997 8.21535 54.3482 8.90817 53.7158C9.80993 52.8966 10.6292 51.9893 11.5255 51.17C11.8444 50.8786 12.2348 50.2572 12.7297 50.7081C13.2355 51.17 12.8671 51.7309 12.4987 52.1652C10.8492 54.0897 9.10062 55.8988 6.95068 57.2954C5.46607 58.2577 3.94847 58.692 2.3154 57.8068C0.665827 56.916 0.104973 55.3489 0.0169961 53.6004C-0.120468 50.8896 0.605342 48.2833 1.1332 45.6604C1.97998 41.4815 2.84326 37.3081 3.70653 33.1292C4.1904 30.7758 4.69627 28.4279 5.16365 26.0746C5.3671 25.0463 5.25163 24.9418 4.16841 24.8704C3.47009 24.8264 2.77178 24.8044 2.79377 23.8256C2.80477 23.3583 3.01371 23.0778 3.49759 23.0448C3.59106 23.0393 3.67904 23.0338 3.77251 23.0338C5.85647 22.9239 5.88396 22.9294 6.36234 20.9114C7.69299 15.2479 9.01264 9.58436 10.2993 3.91534C10.5302 2.9091 10.8822 2.18879 12.0149 1.95785C13.0816 1.7379 14.1153 1.33101 15.1655 1.02859C15.8199 0.841637 16.1828 1.01759 16.0178 1.79289C15.0941 6.17525 14.1813 10.5631 13.263 14.9455C12.7792 17.2384 12.2733 19.5313 11.8114 21.8297C11.619 22.8029 11.8279 23.0064 12.8451 23.0174C14.0053 23.0283 15.16 23.0229 16.3202 23.0229C17.0185 23.0229 17.4199 23.3143 17.4089 24.0566C17.4034 24.7879 16.9141 24.8704 16.3477 24.8649C15.6329 24.8649 14.9291 24.8649 14.2308 24.8704Z" fill="white"/>
<path d="M67.2807 51.2687C68.0175 50.6419 68.7488 50.0095 69.4856 49.3827C69.6945 49.2067 69.887 49.0088 70.1014 48.8438C70.2499 48.7339 70.4368 48.6514 70.5908 48.8328C70.7118 48.9703 70.6458 49.1243 70.5578 49.2507C70.3873 49.4982 70.2279 49.7621 70.0134 49.9765C69.7605 50.235 69.4801 50.4934 69.1722 50.6804C67.2257 51.8625 66.5109 53.6771 66.0325 55.8435C65.2517 59.4011 64.2784 62.9532 62.068 65.9719C61.4082 66.8736 60.5559 67.5609 59.4562 67.8689C58.307 68.1878 57.2458 67.6489 56.7839 66.5327C56.2395 65.2241 56.377 63.9264 56.7949 62.6067C57.5097 60.3358 58.9118 58.5268 60.4734 56.7948C61.3147 55.86 62.244 55.0407 63.1677 54.2049C63.7341 53.6936 63.8551 53.0008 64.0145 52.3189C64.4654 50.3724 64.8998 48.4204 65.3892 46.2485C64.5644 47.0568 64.3059 47.9586 63.7891 48.6844C62.9038 49.9271 62.0075 51.1587 60.7264 52.022C59.3517 52.9513 58.1036 52.9458 57.1303 52.022C56.5475 51.4667 56.311 50.7024 56.2395 49.96C55.9316 46.6499 56.8389 43.7467 59.0713 41.2063C60.7539 39.2928 62.7883 38.2096 65.2792 37.9127C66.6043 37.7532 67.8855 37.9732 69.1392 38.4131C69.4361 38.5175 69.7495 38.677 69.689 39.0454C69.601 39.5788 69.6175 40.1616 69.2271 40.5905C69.0842 40.75 68.9027 40.574 68.7488 40.4695C68.2759 40.1341 67.8085 39.7987 67.3191 39.4908C65.7246 38.479 64.119 38.6275 62.8598 40.0076C60.4184 42.6635 59.3297 45.8636 59.3187 49.4322C59.3132 50.8893 59.8796 51.1917 61.1443 50.4934C62.3484 49.8281 62.9423 48.6184 63.6406 47.5242C64.6743 45.9021 65.4166 44.1261 66.137 42.3445C66.5878 41.2338 67.88 40.9589 68.7708 41.7507C69.0842 42.0311 68.9632 42.361 68.8972 42.6854C68.3584 45.1213 67.8195 47.5572 67.2807 49.9875C67.1982 50.3669 67.1267 50.7463 67.0497 51.1312C67.1267 51.1807 67.2037 51.2247 67.2807 51.2687ZM63.3052 55.4201C63.2392 55.3816 63.1732 55.3431 63.1072 55.2992C62.4804 55.9535 61.8371 56.5913 61.2377 57.2731C59.4617 59.2966 58.109 61.54 57.7351 64.2728C57.6307 65.0426 57.6087 65.7904 57.9661 66.5052C58.274 67.1266 58.7469 67.2255 59.3352 66.9451C59.7311 66.7582 59.9786 66.4227 60.2095 66.0433C60.9628 64.8007 61.2597 63.3985 61.7051 62.0404C62.4144 59.874 62.7333 57.6195 63.3052 55.4201Z" fill="white"/>
<path d="M128.848 49.0968C127.952 49.8611 127.094 50.6749 126.149 51.3732C125.379 51.9395 124.999 52.6599 124.801 53.5616C124.015 57.1082 123.113 60.6163 121.304 63.8109C120.447 65.323 119.583 66.8297 117.785 67.4785C115.927 68.1493 114.47 67.2036 114.354 65.2186C114.2 62.5958 115.234 60.4073 116.79 58.4059C118.11 56.7123 119.726 55.3267 121.442 54.051C121.689 53.864 121.926 53.6606 122.008 53.3527C122.844 50.18 123.647 46.9963 123.9 43.6642C123.443 44.6484 122.992 45.6382 122.52 46.6169C121.684 48.349 120.634 49.9491 119.385 51.4117C118.902 51.978 118.297 52.3684 117.593 52.6379C116.136 53.1987 115.141 52.6873 114.811 51.1368C114.486 49.6136 114.728 48.0795 115.014 46.6004C115.459 44.269 116.086 41.9761 116.664 39.6722C116.895 38.754 118.605 37.8412 119.501 38.1161C119.996 38.2646 119.803 38.644 119.732 38.9519C119.314 40.6345 118.918 42.3281 118.456 43.9941C117.972 45.7262 117.648 47.4967 117.252 49.2507C117.191 49.5147 117.164 49.7951 117.164 50.0645C117.169 50.9828 117.675 51.3127 118.55 50.9993C119.215 50.7628 119.671 50.268 120.089 49.7456C121.508 47.9696 122.542 45.9681 123.372 43.8621C123.999 42.2786 124.593 40.6785 125.219 39.0894C125.538 38.2866 127.039 37.8302 127.804 38.2756C128.117 38.4571 128.057 38.732 128.002 38.9959C127.485 41.4373 126.968 43.8786 126.451 46.32C126.187 47.5682 125.912 48.8164 125.648 50.07C125.604 50.2735 125.505 50.5099 125.742 50.6529C125.956 50.7793 126.149 50.6144 126.336 50.5209C127.21 50.103 127.809 49.2782 128.7 48.8933C128.749 48.9648 128.799 49.0308 128.848 49.0968ZM115.3 64.7732C115.322 65.1196 115.316 65.367 115.355 65.6035C115.454 66.1753 115.69 66.6482 116.29 66.8517C116.884 67.0551 117.268 66.7142 117.648 66.3293C118 65.9774 118.264 65.5815 118.478 65.1361C119.908 62.1779 120.623 58.9887 121.431 55.8325C121.502 55.5521 121.612 55.1782 121.255 55.0187C120.958 54.8868 120.749 55.1782 120.573 55.3706C119.385 56.6298 118.137 57.8395 117.213 59.3241C116.147 61.0287 115.47 62.8652 115.3 64.7732Z" fill="white"/>
<path d="M61.1995 8.04492C63.08 8.04492 64.966 8.05042 66.8465 8.04492C67.8252 8.04492 68.1386 8.40783 67.8692 9.45255C67.2259 11.9874 66.5221 14.5112 65.8567 17.0406C65.5598 18.1568 65.3014 19.284 64.988 20.3947C64.6581 21.5714 64.3941 21.7638 63.1844 21.7693C59.5939 21.7748 55.9978 21.7748 52.4073 21.7693C52.1048 21.7693 51.7914 21.7583 51.5055 21.6814C51.0491 21.5604 50.7907 21.335 50.9446 20.7521C51.9344 17.0186 52.8636 13.2741 53.8534 9.54053C54.1833 8.29236 54.5297 8.10541 55.8109 8.1109C57.6034 8.1219 59.4014 8.1109 61.194 8.1109C61.1995 8.08891 61.1995 8.06692 61.1995 8.04492ZM58.3952 18.4152C58.3952 18.4207 58.3952 18.4207 58.3952 18.4262C59.5224 18.4262 60.6496 18.4152 61.7768 18.4317C62.2717 18.4372 62.5796 18.2613 62.7171 17.7664C63.2669 15.8034 63.8223 13.8404 64.4051 11.8829C64.5921 11.2451 64.4326 10.9812 63.7453 10.9922C61.5184 11.0141 59.297 11.0086 57.07 10.9922C56.5257 10.9867 56.2398 11.1901 56.0968 11.7235C55.5524 13.7194 54.9916 15.7099 54.4087 17.6949C54.2603 18.2063 54.3647 18.4372 54.9256 18.4317C56.0803 18.4097 57.235 18.4152 58.3952 18.4152Z" fill="white"/>
<path d="M29.1095 7.55552C30.7535 7.55552 32.3921 7.56651 34.0362 7.55002C35.5208 7.53352 36.1146 8.90267 35.5208 10.1343C35.0589 11.0966 34.3166 11.8114 33.4863 12.4437C32.6285 13.0981 32.634 13.186 33.6183 13.6864C34.542 14.1538 35.4713 14.6047 36.3896 15.0831C37.5552 15.6934 37.9182 16.3532 37.5333 17.134C37.0879 18.0413 36.0871 18.3547 35.0204 17.8488C33.4478 17.112 31.8807 16.3642 30.3576 15.5394C29.6978 15.182 29.1974 15.2095 28.5926 15.5999C26.3712 17.0405 24.1223 18.4482 21.8899 19.8723C21.527 20.1032 21.164 20.3122 20.7407 20.4167C19.9984 20.5981 19.3715 20.4002 19.0306 19.7183C18.6842 19.0255 18.9371 18.3712 19.5475 17.9533C20.8286 17.0845 22.1483 16.2652 23.4624 15.435C25.5189 14.1318 27.5754 12.8341 29.4999 11.3385C29.6648 11.2121 29.9013 11.0691 29.8353 10.8382C29.7473 10.5357 29.4394 10.6182 29.2084 10.6127C27.8063 10.5962 26.4042 10.5907 25.002 10.5852C24.5732 10.5852 24.1443 10.5797 23.7429 10.4148C23.1765 10.1728 22.7696 9.79343 22.7201 9.13361C22.6762 8.50677 23.0006 8.09988 23.5064 7.79745C23.8803 7.57201 24.2817 7.45654 24.7216 7.45654C26.1842 7.46204 27.6468 7.45654 29.1095 7.45654C29.1095 7.50053 29.1095 7.52802 29.1095 7.55552Z" fill="white"/>
<path d="M33.8165 33.0524C33.1897 32.9644 32.5408 32.7499 31.98 32.2826C31.5346 31.9142 31.0947 31.5293 30.6053 31.2323C29.7366 30.699 28.7523 30.7924 27.9715 31.4193C27.6416 31.6832 27.2567 31.9142 26.9873 32.2331C25.3927 34.1191 23.6717 33.5142 22.0441 32.1726C21.7142 31.9032 21.4337 31.5732 21.0873 31.3313C20.411 30.8584 19.7292 30.7814 19.1518 31.5018C18.7339 32.0186 18.3545 31.9636 17.9641 31.4798C17.7717 31.2433 17.5792 31.0069 17.3593 30.7979C16.2871 29.7642 16.2431 29.6322 17.0514 28.3566C17.3923 27.8177 17.7937 27.3119 18.2391 26.861C19.3168 25.7668 20.7134 25.6678 21.9561 26.5915C22.6159 27.0809 23.2098 27.6528 23.8641 28.1421C24.6504 28.7305 25.3817 28.626 26.025 27.8782C26.223 27.6473 26.3824 27.3778 26.5969 27.1689C28.6039 25.1729 29.3077 25.1454 31.5291 26.9435C31.7435 27.1139 31.958 27.2844 32.1559 27.4713C33.6021 28.824 34.5478 28.8624 35.8565 27.4108C36.4833 26.7235 36.7417 26.773 37.1046 27.5648C37.3961 28.1971 37.7865 28.7855 38.1439 29.3848C38.3088 29.6597 38.3913 29.9292 38.2319 30.2426C37.671 31.3533 35.0977 33.0249 33.8165 33.0524Z" fill="white"/>
<path d="M44.6598 46.2156C45.732 43.8402 46.7327 41.4593 48.4263 39.4523C48.6792 39.1499 48.9706 38.875 49.284 38.6385C50.1473 37.9732 51.1261 37.7588 52.1158 38.2317C53.089 38.6935 53.43 39.6173 53.4794 40.6565C53.5674 42.6085 53.0231 44.456 52.5502 46.3145C52.2148 47.6397 51.8409 48.9594 51.6319 50.3175C51.5659 50.7354 51.5439 51.1478 51.9124 51.3952C52.3082 51.6646 52.5942 51.2852 52.8746 51.0873C53.6279 50.5539 54.1778 49.8171 54.7221 49.0858C54.8706 48.8879 54.997 48.6294 55.294 48.8219C55.6129 49.0253 55.4864 49.2893 55.3215 49.5312C54.5022 50.7574 53.5344 51.8626 52.2368 52.5829C51.4175 53.0393 50.4827 53.2097 49.6304 52.6104C48.6902 51.9506 48.5197 50.9388 48.7067 49.9106C49.0861 47.8431 49.5535 45.7977 49.9879 43.7412C50.1693 42.8779 50.4772 42.0422 50.4992 41.1514C50.5157 40.6125 50.4772 40.0682 49.8999 39.8372C49.339 39.6173 48.9871 40.0297 48.6682 40.4091C47.5795 41.7067 46.8372 43.2243 46.1829 44.753C45.2151 47.0129 44.2913 49.3058 43.626 51.6811C43.4006 52.4894 42.9607 52.6874 42.1524 52.6049C40.4589 52.4234 40.4259 52.3135 40.7998 50.5979C41.4706 47.5077 42.0204 44.39 42.5978 41.2724C42.7188 40.618 43.0432 40.0132 43.0267 39.3204C43.0157 38.941 43.2631 38.7265 43.6535 38.666C44.2859 38.5671 44.9127 38.4571 45.5395 38.3196C46.2653 38.1602 46.4028 38.4626 46.2543 39.1114C45.7815 41.1569 45.3361 43.2134 44.8797 45.2643C44.8027 45.5722 44.7312 45.8967 44.6598 46.2156Z" fill="white"/>
<path d="M34.3775 44.7255C34.1356 45.3028 33.8937 45.8857 33.6572 46.463C32.8654 48.4315 31.8207 50.2351 30.2261 51.6812C29.1924 52.6159 27.9992 53.0228 26.6905 52.4895C25.4754 51.9891 24.9585 50.8619 24.8815 49.6247C24.5846 45.0334 26.2342 41.3329 30.0996 38.7486C31.3643 37.9018 32.7994 37.4839 34.3555 37.7588C35.0813 37.8908 35.3068 38.5011 34.9109 39.117C34.6909 39.4579 34.4765 39.3259 34.2181 39.1829C32.8984 38.4571 32.2166 38.5506 31.1994 39.6943C28.846 42.3446 27.8452 45.4953 27.8562 49.0034C27.8562 49.7897 28.0982 50.5265 28.923 50.7354C29.6927 50.9334 30.2921 50.51 30.7925 49.8887C32.6015 47.6397 33.5802 44.9894 34.548 42.3281C34.9219 41.2999 35.2628 40.2552 35.6037 39.2159C35.8346 38.5011 36.2525 38.0722 37.0608 38.1217C37.3303 38.1382 37.6052 38.0722 37.8801 38.0502C38.8369 37.9788 39.0073 38.1162 38.7929 39.0565C38.3475 40.981 37.8361 42.889 37.3687 44.8135C36.9454 46.5565 36.544 48.3051 36.1426 50.0481C36.0601 50.4165 36.0711 50.7904 36.434 51.0324C36.7914 51.2743 37.1378 51.1148 37.4677 50.9444C38.2265 50.5595 38.6664 49.8392 39.2328 49.2508C39.4362 49.0419 39.6396 48.569 40.0245 48.9374C40.3105 49.2123 40.0245 49.5148 39.8266 49.7292C38.9193 50.7024 38.0451 51.7087 36.8354 52.363C35.0923 53.3088 33.5362 52.462 33.4538 50.477C33.3933 49.0749 33.8772 47.7827 34.1741 46.4521C34.3005 45.8967 34.4105 45.3358 34.526 44.7805C34.482 44.7585 34.4325 44.742 34.3775 44.7255Z" fill="white"/>
<path d="M60.5396 31.3533C60.0998 31.4248 59.7753 31.6722 59.4674 31.9911C57.6144 33.9321 55.7009 33.8771 53.9359 31.8647C53.507 31.3753 53.353 30.8914 53.6994 30.2921C54.0788 29.6322 54.4527 28.9669 54.7826 28.2851C55.0741 27.6747 55.305 27.5648 55.8054 28.1476C56.5862 29.0604 57.0316 29.0109 57.7629 28.0706C59.4729 25.8877 61.3424 25.8492 63.135 27.9607C63.3494 28.2136 63.5364 28.4995 63.7728 28.736C64.4051 29.3683 65.021 29.4178 65.7248 28.8569C66.2691 28.4226 66.7695 27.9277 67.3029 27.4658C68.1167 26.762 68.7875 26.6575 69.7112 27.2019C70.4975 27.6638 71.1739 28.2906 71.8117 28.9504C72.2296 29.3848 72.2626 29.7697 71.7292 30.1601C71.3113 30.468 70.9319 30.8254 70.5525 31.1773C70.1346 31.5677 69.7717 31.9031 69.1559 31.3973C68.793 31.1004 68.3421 31.3258 68.0012 31.6447C67.5118 32.1066 67.0719 32.618 66.5331 33.0139C65.2024 33.9981 63.2834 33.6682 62.0133 32.2935C61.2655 31.4798 60.996 31.3093 60.5396 31.3533Z" fill="white"/>
<path d="M17.2549 46.3423C17.7003 46.0894 17.7773 45.688 17.9147 45.3306C18.734 43.1202 19.7678 41.0252 21.3074 39.2162C21.9617 38.4519 22.704 37.6986 23.7872 38.0725C24.8594 38.4409 25.0739 39.4691 25.0684 40.4864C25.0629 41.2452 24.9639 42.004 24.8539 42.7573C24.7165 43.6535 23.6937 44.3024 22.8085 44.1154C22.4126 44.0329 22.4511 43.7525 22.484 43.4831C22.561 42.7243 22.649 41.971 22.7425 41.2122C22.7975 40.7448 22.858 40.2224 22.3686 39.997C21.8297 39.7496 21.4448 40.1785 21.1259 40.5414C19.9987 41.817 19.2894 43.3401 18.6406 44.8797C17.7278 47.0407 16.9085 49.2401 16.2322 51.489C15.9243 52.5062 14.8905 52.9571 13.9338 52.5117C13.5159 52.3193 13.6039 52.0169 13.6369 51.6705C13.8293 49.6635 14.3572 47.717 14.6981 45.7375C15.05 43.67 15.4734 41.6136 15.8968 39.5626C16.0562 38.7763 17.6288 38.0395 18.3546 38.3584C18.7175 38.5179 18.679 38.8478 18.6186 39.1502C18.2612 40.9098 17.8927 42.6693 17.5243 44.4233C17.4034 45.0337 17.1944 45.6385 17.2549 46.3423Z" fill="white"/>
<path d="M45.1052 16.474C44.253 16.474 43.3952 16.496 42.5429 16.4685C41.8666 16.441 41.5422 16.749 41.4212 17.3923C41.2672 18.2006 41.0858 18.9979 40.8823 19.7952C40.7559 20.2955 40.5799 20.7904 40.206 21.1753C39.7991 21.5987 39.3098 21.6757 38.7819 21.4502C38.2101 21.2083 38.1881 20.7299 38.3035 20.2186C39.0348 17.0734 39.7716 13.9282 40.5029 10.783C40.6624 10.1067 40.6954 9.40839 41.1133 8.79255C41.5092 8.2042 42.037 7.95677 42.6694 8.11622C43.3952 8.29768 43.2852 8.9795 43.2027 9.49086C43.0048 10.6621 42.7519 11.8223 42.4604 12.977C42.279 13.6918 42.5704 13.8072 43.1972 13.7962C44.7478 13.7797 46.2984 13.7907 47.8435 13.8457C48.8333 13.8842 49.2512 14.3241 49.2457 15.1599C49.2402 15.8747 48.6298 16.441 47.7665 16.463C46.8758 16.4905 45.9905 16.4685 45.1052 16.474Z" fill="white"/>
<path d="M52.0063 29.187C52.0063 29.6544 52.0008 29.9293 52.0063 30.2042C52.0283 30.7981 51.7919 31.1115 51.1541 31.1005C49.5705 31.0675 48.4488 31.6888 48.1024 33.3494C48.0144 33.7728 47.7669 33.9707 47.3161 33.8993C46.8982 33.8333 46.4033 34.0312 46.2383 33.3549C46.0184 32.4366 45.3311 32.1342 44.4293 32.1947C43.8245 32.2387 43.2196 32.3432 42.6093 32.2497C41.5646 32.0847 40.7783 31.3149 40.6298 30.2702C40.5693 29.8523 40.5363 29.4674 41.1137 29.3904C41.5426 29.33 41.4601 29.0605 41.3226 28.7856C41.0972 28.3457 40.9872 27.8783 40.9597 27.3835C40.8608 25.6184 42.3344 24.3098 44.0444 24.7881C44.8802 25.0191 45.4356 24.8596 46.1064 24.3538C47.8164 23.0616 49.8839 23.8094 50.4942 25.8769C50.6812 26.4982 50.7692 27.0536 51.5335 27.3945C52.3307 27.7409 51.9898 28.6756 52.0063 29.187ZM49.4825 29.7698C49.8839 29.7698 50.1258 29.7753 50.3733 29.7698C50.8076 29.7588 51.0606 29.5389 51.0991 29.11C51.1376 28.7196 51.0441 28.3072 50.6152 28.2522C49.8234 28.1533 49.7519 27.6474 49.7464 27.0151C49.7354 26.4597 49.5705 25.9428 49.2626 25.47C48.4818 24.2603 47.0411 24.0953 46.2713 25.2885C45.628 26.2783 45.1441 26.3772 44.1929 25.7284C43.2636 25.0961 42.3454 25.5085 41.9275 26.5587C41.3501 27.9993 42.2794 29.5004 43.841 29.7149C44.5118 29.8083 45.0067 29.7588 45.2101 28.9671C45.3861 28.2742 45.826 27.8618 46.6287 28.1533C46.7607 28.2028 46.9367 28.1918 47.0741 28.1478C47.7449 27.9168 48.1628 28.3347 48.2288 28.8406C48.3443 29.8028 48.9436 29.8138 49.4825 29.7698ZM46.7497 29.9953C46.5793 29.6434 46.4308 29.33 46.2658 28.989C45.9524 29.1815 45.8424 29.4344 45.7985 29.6984C45.6665 30.4792 45.1551 30.6606 44.4678 30.5836C44.1379 30.5451 43.808 30.4737 43.4726 30.4737C43.1482 30.4737 42.7358 29.8743 42.5653 30.3912C42.3839 30.941 43.0877 30.9245 43.4286 31.106C43.599 31.1995 43.841 31.172 44.0554 31.172C44.9352 31.172 45.8095 31.183 46.6507 31.5294C47.0411 31.6888 48.2398 30.6441 48.0309 30.3637C47.734 29.9733 47.734 29.4564 47.437 29.0825C47.0466 29.286 47.1786 29.7478 46.7497 29.9953Z" fill="white"/>
<path d="M139.664 25.6896C139.664 29.819 136.365 33.1236 132.23 33.1236C128.111 33.1236 124.774 29.742 124.79 25.5796C124.801 21.5546 128.177 18.2445 132.252 18.25C136.381 18.25 139.664 21.5436 139.664 25.6896ZM125.725 25.7061C125.731 29.3461 128.733 32.3263 132.329 32.2604C135.815 32.1999 138.773 29.2031 138.801 25.7116C138.828 22.198 135.793 19.1298 132.285 19.1243C128.65 19.1133 125.72 22.055 125.725 25.7061Z" fill="white"/>
<path d="M71.9439 9.15546C71.702 10.2497 71.4105 11.5858 71.1026 12.922C70.5253 15.4128 69.9314 17.8982 69.3596 20.3835C69.2441 20.8784 69.0297 21.3073 68.6393 21.6207C68.1994 21.9726 67.699 22.0441 67.1821 21.7747C66.6983 21.5272 66.7258 21.0544 66.8027 20.6475C67.0832 19.2453 67.3966 17.8432 67.721 16.4521C68.2544 14.1372 68.8262 11.8333 69.3431 9.51287C69.4695 8.94102 69.7555 8.49563 70.1404 8.11073C70.4813 7.76982 70.9322 7.66535 71.4105 7.8468C71.9164 8.03375 71.9439 8.45714 71.9439 9.15546Z" fill="white"/>
<path d="M32.2658 18.2722C33.0631 18.3987 34.1243 17.9973 35.0921 18.5802C35.9278 19.086 36.3402 19.8448 36.0763 20.6256C35.7904 21.4834 35.0866 21.8738 34.2398 21.8848C32.7827 21.8958 31.3255 21.8353 29.8739 21.7803C28.8127 21.7363 28.0264 21.027 28.0099 20.1527C27.9934 19.1465 28.7577 18.3492 29.8684 18.2832C30.5887 18.2337 31.32 18.2722 32.2658 18.2722ZM32.2438 20.6806C32.2493 20.6806 32.4637 20.6641 32.6727 20.6861C33.0741 20.7191 33.426 20.6806 33.459 20.1692C33.492 19.7019 33.1896 19.5039 32.7882 19.4654C32.3373 19.4214 31.8754 19.4214 31.4245 19.4159C30.9901 19.4104 30.6162 19.5149 30.6217 20.0538C30.6327 20.6201 30.9956 20.7631 31.485 20.7301C31.6719 20.7191 31.8534 20.7081 32.2438 20.6806Z" fill="white"/>
<path d="M131.515 21.8905C131.884 21.8905 132.247 21.907 132.615 21.885C133.572 21.8355 134.303 22.1765 134.638 23.1057C134.99 24.079 134.688 25.0467 133.825 25.6845C133.445 25.965 133.379 26.1409 133.687 26.5423C134.149 27.1472 134.523 27.8125 134.908 28.4723C135.062 28.7362 135.408 29.0717 134.968 29.3301C134.594 29.55 134.16 29.4401 133.913 29.0662C133.539 28.5108 133.236 27.9115 132.873 27.3451C132.494 26.7513 132.098 26.1739 131.268 26.1464C130.63 26.1244 130.284 26.3224 130.311 27.0207C130.339 27.598 130.317 28.1809 130.295 28.7582C130.284 29.0991 130.135 29.3576 129.75 29.3631C129.371 29.3686 129.195 29.1211 129.189 28.7802C129.178 26.6798 129.178 24.5738 129.189 22.4734C129.189 22.0555 129.481 21.9015 129.866 21.896C130.416 21.896 130.965 21.896 131.515 21.8905ZM131.878 25.0302C131.955 25.0247 132.258 25.0357 132.56 24.9862C133.148 24.8872 133.638 24.5793 133.632 23.9415C133.627 23.3037 133.137 22.9957 132.543 22.9133C132.153 22.8638 131.752 22.9078 131.361 22.8693C130.575 22.7923 130.267 23.1112 130.3 23.914C130.344 24.9752 130.372 25.0302 131.878 25.0302Z" fill="white"/>
</svg>
