<svg width="35" height="36" viewBox="0 0 35 36" fill="none" xmlns="http://www.w3.org/2000/svg">
<path d="M17.9453 26.5977C17.9453 24.0088 17.9563 21.4199 17.9343 18.8255C17.9288 18.3366 18.0388 18.0366 18.5116 17.8033C23.7127 15.181 28.9028 12.531 34.0983 9.89214C34.967 9.4477 34.978 9.45881 34.978 10.4088C34.978 15.5866 34.967 20.7699 34.9945 25.9477C35 26.5366 34.7911 26.8144 34.2853 27.0699C29.1062 29.681 23.9381 32.3088 18.781 34.9532C18.1433 35.281 17.9179 35.2921 17.9288 34.4532C17.9728 31.8366 17.9453 29.2144 17.9453 26.5977Z" fill="url(#paint0_linear_12_2153)"/>
<path d="M11.2378 21.3978C11.2378 19.6978 11.2323 18.1034 11.2378 16.5145C11.2433 15.12 11.0674 15.0589 12.4694 15.7811C13.7779 16.4534 15.0809 17.1367 16.4114 17.7645C16.9062 17.9978 17.0602 18.2923 17.0602 18.8311C17.0437 24.0645 17.0382 29.3034 17.0602 34.5367C17.0657 35.2923 16.8457 35.27 16.2904 34.9811C11.0784 32.3145 5.86082 29.6589 0.637762 27.0256C0.148443 26.7811 -1.3704e-06 26.4867 -1.3704e-06 25.9534C0.0164925 20.7478 0.0219905 15.5423 -1.3704e-06 10.3311C-0.00549933 9.59225 0.153941 9.47559 0.808198 9.82559C2.4081 10.6867 4.0245 11.5145 5.6574 12.3034C6.16321 12.5478 6.29516 12.8645 6.28416 13.3923C6.25667 15.0478 6.27317 16.7089 6.27317 18.3645C6.27317 18.72 6.25667 19.1756 6.76798 19.0589C8.55482 18.67 9.59394 19.7645 10.6111 20.9478C10.7045 21.0589 10.8145 21.1534 10.9244 21.2478C10.9684 21.2867 11.0289 21.2978 11.2378 21.3978Z" fill="url(#paint1_linear_12_2153)"/>
<path d="M34.3183 8.58098C34.0983 8.91431 33.8069 8.98653 33.5595 9.11431C28.397 11.7421 23.2344 14.3699 18.0718 16.9921C17.7969 17.131 17.544 17.3143 17.1921 17.131C15.4548 16.2254 13.7119 15.3476 11.9636 14.4532C12.0845 14.081 12.3979 14.031 12.6343 13.9032C17.6265 11.1976 22.6241 8.49764 27.6162 5.79209C27.9516 5.61431 28.232 5.46987 28.6499 5.68653C30.5082 6.66987 32.394 7.6032 34.3183 8.58098Z" fill="url(#paint2_linear_12_2153)"/>
<path d="M0.555298 8.65322C2.82595 7.49766 4.94817 6.40877 7.07038 5.331C10.3087 3.681 13.5525 2.04766 16.7743 0.375441C17.2911 0.108774 17.6979 0.0865518 18.2147 0.36433C19.8036 1.21989 21.42 2.02544 23.1849 2.931C22.3657 3.38655 21.7004 3.76433 21.0297 4.12544C16.5159 6.56433 11.991 8.99211 7.48272 11.4532C6.96592 11.7366 6.56457 11.7366 6.05326 11.4643C4.27742 10.5254 2.47409 9.631 0.555298 8.65322Z" fill="url(#paint3_linear_12_2153)"/>
<defs>
<linearGradient id="paint0_linear_12_2153" x1="26.4615" y1="9.6084" x2="26.4615" y2="35.1606" gradientUnits="userSpaceOnUse">
<stop stop-color="#FB47BF"/>
<stop offset="1" stop-color="#B40B7C"/>
</linearGradient>
<linearGradient id="paint1_linear_12_2153" x1="8.53006" y1="9.63623" x2="8.53006" y2="35.1672" gradientUnits="userSpaceOnUse">
<stop stop-color="#FB47BF"/>
<stop offset="1" stop-color="#B40B7C"/>
</linearGradient>
<linearGradient id="paint2_linear_12_2153" x1="30.5" y1="7.10986" x2="14.5" y2="15.6099" gradientUnits="userSpaceOnUse">
<stop stop-color="#FFBC6C"/>
<stop offset="1" stop-color="#FF9110"/>
</linearGradient>
<linearGradient id="paint3_linear_12_2153" x1="19.5" y1="0.609863" x2="3" y2="10.1099" gradientUnits="userSpaceOnUse">
<stop stop-color="#FFBC6C"/>
<stop offset="1" stop-color="#FF9110"/>
</linearGradient>
</defs>
</svg>
