<svg width="37" height="32" viewBox="0 0 37 32" fill="none" xmlns="http://www.w3.org/2000/svg">
<path d="M32.677 12.3748C30.6135 11.4944 28.5692 11.2556 26.4769 11.6178C21.5768 12.4658 17.9413 16.5398 17.5251 21.6712C17.4771 22.2641 17.3362 22.4282 16.7455 22.425C12.3192 22.3973 7.8929 22.4168 3.4666 22.4071C1.38552 22.4022 0.0232145 21.0036 0.018412 18.8805C0.0104079 15.2013 0.0296178 10.7082 0.00240372 7.02891C-0.00239877 6.43276 0.141676 6.25083 0.749992 6.25245C11.149 6.27194 21.548 6.2687 31.947 6.25733C32.4673 6.25733 32.7074 6.34829 32.6898 6.95582C32.6481 8.44052 32.677 10.7423 32.677 12.3748ZM8.69331 18.0228C9.75947 18.0228 10.8256 18.0342 11.8918 18.0196C12.649 18.0098 13.1276 17.5794 13.142 16.9442C13.1564 16.2994 12.697 15.8445 11.9318 15.838C9.8267 15.8202 7.72161 15.8218 5.61652 15.8364C4.84812 15.8413 4.36467 16.2782 4.35506 16.902C4.34386 17.5436 4.86893 18.0098 5.65654 18.0196C6.66826 18.0342 7.68159 18.0245 8.69331 18.0228ZM8.79737 11.4635C7.73121 11.4635 6.66666 11.4489 5.60211 11.4684C4.83531 11.4814 4.35346 11.9167 4.35346 12.5405C4.35186 13.1578 4.85612 13.6272 5.59411 13.6321C7.6976 13.6451 9.80269 13.6451 11.9062 13.6337C12.6618 13.6288 13.1388 13.187 13.1436 12.5519C13.1484 11.907 12.6922 11.483 11.9158 11.4684C10.8752 11.4489 9.83631 11.4635 8.79737 11.4635Z" fill="url(#paint0_linear_12_2171)"/>
<path d="M19.6798 22.4348C19.6686 17.5762 23.5138 13.6517 28.2971 13.6387C33.0804 13.6257 36.9864 17.5405 37.0008 22.3617C37.0152 27.1813 33.122 31.153 28.3675 31.1692C23.5922 31.1871 19.691 27.2641 19.6798 22.4348ZM33.7207 20.224C33.7047 19.7838 33.5286 19.4232 33.13 19.2396C32.6417 19.0138 32.2031 19.134 31.8205 19.5206C30.463 20.8965 29.0815 22.2496 27.7464 23.6482C27.3446 24.069 27.1109 24.0495 26.7395 23.6352C26.1664 22.9952 25.5453 22.3991 24.9289 21.8013C24.3238 21.2149 23.7011 21.1678 23.2353 21.6405C22.7742 22.1116 22.8335 22.7467 23.421 23.3494C24.3767 24.3305 25.3404 25.3035 26.3105 26.27C26.9988 26.9539 27.4775 26.9685 28.161 26.2863C29.8723 24.5806 31.566 22.8555 33.2693 21.1418C33.5254 20.8868 33.7079 20.6009 33.7207 20.224Z" fill="url(#paint1_linear_12_2171)"/>
<path d="M16.3053 4.55813C11.157 4.55813 6.00711 4.54026 0.858837 4.57763C0.124055 4.5825 -0.0184184 4.36158 0.000791546 3.67446C0.0600223 1.57736 1.40632 0.177133 3.49861 0.175508C12.0358 0.169011 20.5715 0.169011 29.1087 0.173884C31.3242 0.175508 32.6753 1.59361 32.6898 3.83853C32.693 4.39244 32.5697 4.58575 31.9902 4.57113C30.3637 4.53052 28.7357 4.55651 27.1093 4.55651C23.5074 4.55813 19.9055 4.55813 16.3053 4.55813Z" fill="#FB47BF"/>
<defs>
<linearGradient id="paint0_linear_12_2171" x1="16.3465" y1="6.25244" x2="16.3465" y2="22.425" gradientUnits="userSpaceOnUse">
<stop stop-color="#FB47BF"/>
<stop offset="1" stop-color="#B40B7C"/>
</linearGradient>
<linearGradient id="paint1_linear_12_2171" x1="28.3403" y1="13.6387" x2="28.3403" y2="31.1693" gradientUnits="userSpaceOnUse">
<stop stop-color="#FFBC6C"/>
<stop offset="1" stop-color="#FF9110"/>
</linearGradient>
</defs>
</svg>
