<svg width="140" height="67" viewBox="0 0 140 67" fill="none" xmlns="http://www.w3.org/2000/svg">
<path d="M80.0483 44.2773C80.2572 43.678 80.4772 43.0896 80.6641 42.4848C81.9783 38.2014 83.5014 33.995 85.019 29.7831C86.5256 25.5932 88.1367 21.4528 89.8797 17.3563C91.2654 14.1012 92.7225 10.8735 94.691 7.9263C95.6367 6.50767 96.5165 4.95158 98.221 4.19827C99.8156 3.49446 101.603 4.14329 102.251 5.75437C103.076 7.79983 103.032 9.91678 102.675 12.0502C102.477 13.2214 102.317 14.3981 102.07 15.5583C101.163 19.7867 99.9916 23.9491 98.8094 28.1115C97.5887 32.4169 96.5055 36.7553 95.3343 41.0717C94.9604 42.4573 94.636 43.8484 94.4765 45.2671C94.438 45.6025 94.2731 46.1083 94.702 46.2403C95.0814 46.3558 95.1858 45.8499 95.3508 45.586C96.2306 44.1783 96.7144 42.5893 97.2533 41.0387C99.1448 35.6006 100.932 30.124 102.818 24.6804C104.632 19.4403 106.584 14.2497 109.152 9.32294C110.01 7.67337 110.95 6.05129 112.418 4.8526C114.739 2.9501 116.454 4.24776 117.18 6.51317C117.719 8.19573 117.774 9.93328 117.642 11.6708C117.395 14.8875 116.867 18.0767 116.163 21.2218C115.058 26.187 113.815 31.1192 112.633 36.068C111.594 40.4228 110.571 44.7777 109.642 49.1545C109.251 51.0021 108.861 52.8441 108.503 54.7026C108.322 55.6483 108.08 55.7473 107.31 55.181C105.265 53.6854 105.144 54.1967 105.721 51.4639C107.294 44.0079 109.114 36.6123 110.961 29.2222C112.407 23.4268 113.941 17.6533 114.997 11.7698C115.289 10.1367 115.316 8.49815 115.289 6.85408C115.278 6.19975 115.217 5.49594 114.563 5.18802C113.853 4.8581 113.194 5.21551 112.622 5.66639C111.544 6.51317 110.879 7.68436 110.213 8.85006C107.997 12.732 106.425 16.889 104.896 21.0679C103.17 25.7856 101.586 30.5529 99.9696 35.3092C98.54 39.5156 97.1048 43.7275 95.2793 47.7854C94.724 49.0226 94.1961 50.3202 93.0964 51.233C92.695 51.5629 92.2881 51.9423 91.7107 51.6399C91.1719 51.365 91.0619 50.8261 91.0674 50.3092C91.0949 48.7861 91.1444 47.2575 91.4028 45.7564C92.585 38.9602 94.405 32.3234 96.2086 25.6757C97.0718 22.4975 97.9901 19.3358 98.6884 16.1192C99.2383 13.5953 99.9091 11.088 100.195 8.50365C100.289 7.65137 100.365 6.7991 100.135 5.95781C99.8816 5.02306 99.2603 4.72614 98.397 5.15502C97.5007 5.60041 96.8519 6.33172 96.2526 7.10702C94.0476 9.95527 92.5795 13.2159 91.1389 16.4711C89.1374 20.9799 87.3614 25.5877 85.7008 30.2395C84.1777 34.5119 82.6876 38.7952 81.2965 43.1171C80.4552 45.7234 79.5314 48.3023 78.7891 50.9416C78.6352 51.4804 78.3052 51.7554 77.7224 51.7334C77.1121 51.7114 76.5017 51.7334 75.8914 51.7279C75.2535 51.7224 75.0336 51.4419 75.1876 50.7931C76.3917 45.7564 77.6069 40.7252 78.7506 35.6776C79.6304 31.7846 80.5267 27.8971 81.3185 23.9876C82.1707 19.7757 83.001 15.5638 83.5289 11.3024C83.7323 9.66385 83.6938 8.01428 83.6059 6.37571C83.5729 5.82035 83.4134 5.2375 82.7811 5.07255C82.1488 4.90759 81.7474 5.34747 81.4174 5.79836C80.0978 7.61838 79.2125 9.65835 78.4262 11.7423C77.1396 15.1624 75.8089 18.5715 74.8961 22.1181C74.7862 22.558 74.5992 22.8604 74.0769 22.7119C73.6975 22.6075 73.1971 22.6899 73.362 21.9641C73.472 21.4803 72.9442 21.1833 72.6857 20.8259C72.3613 20.3751 72.1854 19.9407 72.3998 19.3853C73.7964 15.8112 75.1271 12.2042 77.0626 8.86656C77.8874 7.44243 78.7946 6.06779 80.1033 5.01206C80.7851 4.46221 81.5824 4.14329 82.4237 3.98933C83.6663 3.76389 84.7826 4.42921 85.4204 5.75437C85.9537 6.85958 86.2617 8.03077 86.3496 9.26245C86.5916 12.6276 86.1792 15.9377 85.5853 19.2478C85.107 21.9147 84.6066 24.576 83.9963 27.2153C82.99 31.5426 82.0773 35.8865 80.8731 40.1644C80.4992 41.495 80.0428 42.8312 80.0483 44.2773Z" fill="#B40B7C"/>
<path d="M14.2308 23.9104C13.5929 23.9104 12.9496 23.9434 12.3118 23.8994C11.509 23.8444 11.1791 24.2238 11.0196 24.9716C10.3488 28.1608 9.64498 31.3445 8.94116 34.5281C7.73148 40.0047 6.5108 45.4758 5.28462 50.9469C5.11416 51.7002 5.10317 52.4645 5.17465 53.2178C5.25163 53.9931 5.741 54.3175 6.5163 54.1965C7.50604 54.037 8.21535 53.3882 8.90817 52.7559C9.80993 51.9366 10.6292 51.0293 11.5255 50.21C11.8444 49.9186 12.2348 49.2973 12.7297 49.7482C13.2355 50.21 12.8671 50.7709 12.4987 51.2053C10.8492 53.1298 9.10062 54.9388 6.95068 56.3354C5.46607 57.2977 3.94847 57.7321 2.3154 56.8468C0.665827 55.956 0.104973 54.389 0.0169961 52.6404C-0.120468 49.9296 0.605342 47.3233 1.1332 44.7005C1.97998 40.5216 2.84326 36.3482 3.70653 32.1693C4.1904 29.8159 4.69627 27.468 5.16365 25.1146C5.3671 24.0864 5.25163 23.9819 4.16841 23.9104C3.47009 23.8664 2.77178 23.8444 2.79377 22.8657C2.80477 22.3983 3.01371 22.1179 3.49759 22.0849C3.59106 22.0794 3.67904 22.0739 3.77251 22.0739C5.85647 21.9639 5.88396 21.9694 6.36234 19.9514C7.69299 14.2879 9.01264 8.6244 10.2993 2.95537C10.5302 1.94914 10.8822 1.22882 12.0149 0.997885C13.0816 0.777943 14.1153 0.371049 15.1655 0.0686276C15.8199 -0.118324 16.1828 0.0576305 16.0178 0.832928C15.0941 5.21528 14.1813 9.60314 13.263 13.9855C12.7792 16.2784 12.2733 18.5713 11.8114 20.8697C11.619 21.8429 11.8279 22.0464 12.8451 22.0574C14.0053 22.0684 15.16 22.0629 16.3202 22.0629C17.0185 22.0629 17.4199 22.3543 17.4089 23.0966C17.4034 23.8279 16.9141 23.9104 16.3477 23.9049C15.6329 23.9049 14.9291 23.9049 14.2308 23.9104Z" fill="#B40B7C"/>
<path d="M67.2807 50.3089C68.0175 49.6821 68.7488 49.0498 69.4856 48.4229C69.6946 48.247 69.887 48.049 70.1014 47.8841C70.2499 47.7741 70.4369 47.6916 70.5908 47.8731C70.7118 48.0105 70.6458 48.1645 70.5578 48.291C70.3874 48.5384 70.2279 48.8023 70.0135 49.0168C69.7605 49.2752 69.4801 49.5336 69.1722 49.7206C67.2257 50.9028 66.5109 52.7173 66.0325 54.8837C65.2517 58.4413 64.2785 61.9934 62.068 65.0121C61.4082 65.9139 60.5559 66.6012 59.4562 66.9091C58.307 67.228 57.2458 66.6891 56.7839 65.5729C56.2396 64.2643 56.377 62.9666 56.7949 61.647C57.5097 59.3761 58.9119 57.567 60.4735 55.835C61.3147 54.9002 62.244 54.0809 63.1678 53.2452C63.7341 52.7338 63.8551 52.041 64.0145 51.3592C64.4654 49.4127 64.8998 47.4607 65.3892 45.2887C64.5644 46.097 64.306 46.9988 63.7891 47.7246C62.9038 48.9673 62.0076 50.199 60.7264 51.0622C59.3518 51.9915 58.1036 51.986 57.1303 51.0622C56.5475 50.5069 56.3111 49.7426 56.2396 49.0003C55.9317 45.6901 56.8389 42.7869 59.0713 40.2466C60.7539 38.3331 62.7884 37.2498 65.2792 36.9529C66.6044 36.7935 67.8855 37.0134 69.1392 37.4533C69.4361 37.5578 69.7495 37.7172 69.6891 38.0856C69.6011 38.619 69.6176 39.2018 69.2272 39.6307C69.0842 39.7902 68.9028 39.6142 68.7488 39.5097C68.2759 39.1743 67.8085 38.8389 67.3192 38.531C65.7246 37.5193 64.119 37.6677 62.8598 39.0479C60.4185 41.7037 59.3298 44.9038 59.3188 48.4724C59.3133 49.9295 59.8796 50.2319 61.1443 49.5336C62.3485 48.8683 62.9423 47.6586 63.6406 46.5644C64.6744 44.9423 65.4167 43.1663 66.137 41.3848C66.5879 40.274 67.88 39.9991 68.7708 40.7909C69.0842 41.0713 68.9632 41.4013 68.8973 41.7257C68.3584 44.1615 67.8195 46.5974 67.2807 49.0278C67.1982 49.4072 67.1267 49.7866 67.0497 50.1715C67.1267 50.2209 67.2037 50.2649 67.2807 50.3089ZM63.3052 54.4603C63.2392 54.4219 63.1733 54.3834 63.1073 54.3394C62.4804 54.9937 61.8371 55.6315 61.2378 56.3134C59.4617 58.3368 58.1091 60.5802 57.7352 63.313C57.6307 64.0828 57.6087 64.8306 57.9661 65.5454C58.274 66.1668 58.7469 66.2658 59.3353 65.9853C59.7312 65.7984 59.9786 65.463 60.2095 65.0836C60.9628 63.8409 61.2598 62.4388 61.7051 61.0806C62.4145 58.9142 62.7334 56.6598 63.3052 54.4603Z" fill="#B40B7C"/>
<path d="M128.848 48.137C127.952 48.9013 127.094 49.7151 126.149 50.4134C125.379 50.9798 124.999 51.7001 124.802 52.6018C124.015 56.1484 123.113 59.6565 121.304 62.8512C120.447 64.3633 119.583 65.8699 117.785 66.5187C115.927 67.1895 114.47 66.2438 114.354 64.2588C114.2 61.636 115.234 59.4476 116.79 57.4461C118.11 55.7525 119.726 54.3669 121.442 53.0912C121.689 52.9043 121.926 52.7008 122.008 52.3929C122.844 49.2202 123.647 46.0366 123.9 42.7044C123.443 43.6887 122.993 44.6784 122.52 45.6572C121.684 47.3892 120.634 48.9893 119.385 50.4519C118.902 51.0183 118.297 51.4087 117.593 51.6781C116.136 52.2389 115.141 51.7276 114.811 50.177C114.486 48.6539 114.728 47.1198 115.014 45.6407C115.459 43.3093 116.086 41.0164 116.664 38.7125C116.895 37.7942 118.605 36.8814 119.501 37.1564C119.996 37.3048 119.803 37.6842 119.732 37.9922C119.314 39.6747 118.918 41.3683 118.456 43.0343C117.972 44.7664 117.648 46.5369 117.252 48.291C117.192 48.5549 117.164 48.8353 117.164 49.1048C117.17 50.023 117.675 50.3529 118.55 50.0395C119.215 49.8031 119.671 49.3082 120.089 48.7858C121.508 47.0098 122.542 45.0083 123.372 42.9024C123.999 41.3188 124.593 39.7187 125.219 38.1296C125.538 37.3268 127.039 36.8704 127.804 37.3158C128.117 37.4973 128.057 37.7722 128.002 38.0361C127.485 40.4775 126.968 42.9189 126.451 45.3602C126.187 46.6084 125.912 47.8566 125.648 49.1103C125.604 49.3137 125.505 49.5501 125.742 49.6931C125.956 49.8196 126.149 49.6546 126.336 49.5611C127.21 49.1432 127.809 48.3185 128.7 47.9336C128.75 48.005 128.799 48.071 128.848 48.137ZM115.3 63.8134C115.322 64.1598 115.317 64.4073 115.355 64.6437C115.454 65.2155 115.69 65.6884 116.29 65.8919C116.884 66.0953 117.268 65.7544 117.648 65.3695C118 65.0176 118.264 64.6217 118.478 64.1763C119.908 61.2181 120.623 58.0289 121.431 54.8727C121.502 54.5923 121.612 54.2184 121.255 54.059C120.958 53.927 120.749 54.2184 120.573 54.4109C119.385 55.67 118.137 56.8797 117.214 58.3643C116.147 60.0689 115.47 61.9054 115.3 63.8134Z" fill="#B40B7C"/>
<path d="M61.1995 7.08514C63.08 7.08514 64.966 7.09064 66.8465 7.08514C67.8252 7.08514 68.1386 7.44805 67.8692 8.49278C67.2259 11.0276 66.5221 13.5515 65.8567 16.0808C65.5598 17.197 65.3014 18.3242 64.988 19.4349C64.6581 20.6116 64.3941 20.8041 63.1844 20.8096C59.5939 20.8151 55.9978 20.8151 52.4073 20.8096C52.1048 20.8096 51.7914 20.7986 51.5055 20.7216C51.0491 20.6006 50.7907 20.3752 50.9446 19.7923C51.9344 16.0588 52.8636 12.3143 53.8534 8.58075C54.1833 7.33258 54.5297 7.14563 55.8109 7.15113C57.6034 7.16212 59.4014 7.15113 61.194 7.15113C61.1995 7.12913 61.1995 7.10714 61.1995 7.08514ZM58.3952 17.4554C58.3952 17.4609 58.3952 17.4609 58.3952 17.4664C59.5224 17.4664 60.6496 17.4554 61.7768 17.4719C62.2717 17.4774 62.5796 17.3015 62.7171 16.8066C63.2669 14.8436 63.8223 12.8806 64.4051 10.9231C64.5921 10.2853 64.4326 10.0214 63.7453 10.0324C61.5184 10.0544 59.297 10.0489 57.07 10.0324C56.5257 10.0269 56.2398 10.2303 56.0968 10.7637C55.5524 12.7597 54.9916 14.7501 54.4087 16.7351C54.2603 17.2465 54.3647 17.4774 54.9256 17.4719C56.0803 17.4499 57.235 17.4554 58.3952 17.4554Z" fill="#B40B7C"/>
<path d="M29.1095 6.59562C30.7535 6.59562 32.3921 6.60661 34.0362 6.59012C35.5208 6.57362 36.1146 7.94277 35.5208 9.17444C35.0589 10.1367 34.3166 10.8515 33.4863 11.4838C32.6285 12.1382 32.634 12.2261 33.6183 12.7265C34.542 13.1939 35.4713 13.6448 36.3896 14.1232C37.5552 14.7335 37.9182 15.3933 37.5333 16.1741C37.0879 17.0814 36.0871 17.3948 35.0204 16.8889C33.4478 16.1521 31.8807 15.4043 30.3576 14.5795C29.6978 14.2221 29.1974 14.2496 28.5926 14.64C26.3712 16.0806 24.1223 17.4883 21.8899 18.9124C21.527 19.1433 21.164 19.3523 20.7407 19.4568C19.9984 19.6382 19.3715 19.4403 19.0306 18.7584C18.6842 18.0656 18.9371 17.4113 19.5475 16.9934C20.8286 16.1246 22.1483 15.3053 23.4624 14.4751C25.5189 13.1719 27.5754 11.8742 29.4999 10.3786C29.6648 10.2522 29.9013 10.1092 29.8353 9.87826C29.7473 9.57584 29.4394 9.65832 29.2084 9.65282C27.8063 9.63632 26.4042 9.63083 25.002 9.62533C24.5732 9.62533 24.1443 9.61983 23.7429 9.45487C23.1765 9.21293 22.7696 8.83353 22.7201 8.17371C22.6762 7.54687 23.0006 7.13998 23.5064 6.83755C23.8803 6.61211 24.2817 6.49664 24.7216 6.49664C26.1842 6.50214 27.6468 6.49664 29.1095 6.49664C29.1095 6.54063 29.1095 6.56812 29.1095 6.59562Z" fill="#B40B7C"/>
<path d="M33.8166 32.0922C33.1897 32.0042 32.5409 31.7897 31.98 31.3224C31.5347 30.9539 31.0948 30.569 30.6054 30.2721C29.7366 29.7388 28.7524 29.8322 27.9716 30.4591C27.6417 30.723 27.2568 30.9539 26.9873 31.2729C25.3928 33.1589 23.6717 32.554 22.0441 31.2124C21.7142 30.9429 21.4338 30.613 21.0874 30.3711C20.4111 29.8982 19.7292 29.8212 19.1519 30.5416C18.734 31.0584 18.3546 31.0034 17.9642 30.5196C17.7718 30.2831 17.5793 30.0467 17.3594 29.8377C16.2871 28.804 16.2432 28.672 17.0514 27.3964C17.3924 26.8575 17.7937 26.3516 18.2391 25.9008C19.3168 24.8066 20.7135 24.7076 21.9562 25.6313C22.616 26.1207 23.2098 26.6926 23.8642 27.1819C24.6505 27.7703 25.3818 27.6658 26.0251 26.918C26.223 26.6871 26.3825 26.4176 26.5969 26.2087C28.6039 24.2127 29.3077 24.1852 31.5292 25.9832C31.7436 26.1537 31.958 26.3242 32.156 26.5111C33.6021 27.8638 34.5479 27.9022 35.8565 26.4506C36.4834 25.7633 36.7418 25.8128 37.1047 26.6046C37.3961 27.2369 37.7865 27.8253 38.1439 28.4246C38.3089 28.6995 38.3914 28.969 38.2319 29.2824C37.6711 30.3931 35.0977 32.0647 33.8166 32.0922Z" fill="#B40B7C"/>
<path d="M44.6598 45.2557C45.732 42.8804 46.7327 40.4995 48.4263 38.4925C48.6792 38.1901 48.9706 37.9151 49.284 37.6787C50.1473 37.0134 51.1261 36.7989 52.1158 37.2718C53.089 37.7337 53.43 38.6575 53.4794 39.6967C53.5674 41.6487 53.0231 43.4962 52.5502 45.3547C52.2148 46.6799 51.8409 47.9995 51.6319 49.3577C51.5659 49.7756 51.5439 50.1879 51.9124 50.4354C52.3082 50.7048 52.5942 50.3254 52.8746 50.1275C53.6279 49.5941 54.1778 48.8573 54.7221 48.126C54.8706 47.928 54.997 47.6696 55.294 47.8621C55.6129 48.0655 55.4864 48.3294 55.3215 48.5714C54.5022 49.7975 53.5344 50.9028 52.2368 51.6231C51.4175 52.0794 50.4827 52.2499 49.6304 51.6506C48.6902 50.9907 48.5197 49.979 48.7067 48.9508C49.0861 46.8833 49.5535 44.8378 49.9879 42.7814C50.1693 41.9181 50.4772 41.0823 50.4992 40.1916C50.5157 39.6527 50.4772 39.1083 49.8999 38.8774C49.339 38.6575 48.9871 39.0698 48.6682 39.4492C47.5795 40.7469 46.8372 42.2645 46.1829 43.7931C45.2151 46.053 44.2913 48.3459 43.626 50.7213C43.4006 51.5296 42.9607 51.7275 42.1524 51.6451C40.4589 51.4636 40.4259 51.3536 40.7998 49.6381C41.4706 46.5479 42.0204 43.4302 42.5978 40.3125C42.7188 39.6582 43.0432 39.0534 43.0267 38.3605C43.0157 37.9811 43.2631 37.7667 43.6535 37.7062C44.2859 37.6072 44.9127 37.4973 45.5395 37.3598C46.2653 37.2003 46.4028 37.5028 46.2543 38.1516C45.7815 40.197 45.3361 42.2535 44.8797 44.3045C44.8027 44.6124 44.7312 44.9368 44.6598 45.2557Z" fill="#B40B7C"/>
<path d="M34.3775 43.7657C34.1356 44.343 33.8937 44.9259 33.6572 45.5032C32.8654 47.4717 31.8207 49.2752 30.2261 50.7213C29.1924 51.6561 27.9992 52.063 26.6905 51.5296C25.4754 51.0293 24.9585 49.9021 24.8815 48.6649C24.5846 44.0736 26.2342 40.373 30.0996 37.7887C31.3643 36.9419 32.7994 36.524 34.3555 36.799C35.0813 36.9309 35.3068 37.5413 34.9109 38.1571C34.6909 38.498 34.4765 38.3661 34.2181 38.2231C32.8984 37.4973 32.2166 37.5908 31.1994 38.7345C28.846 41.3848 27.8452 44.5355 27.8562 48.0435C27.8562 48.8298 28.0982 49.5666 28.923 49.7756C29.6927 49.9735 30.2921 49.5502 30.7925 48.9288C32.6015 46.6799 33.5802 44.0296 34.548 41.3683C34.9219 40.3401 35.2628 39.2953 35.6037 38.2561C35.8346 37.5413 36.2525 37.1124 37.0608 37.1619C37.3303 37.1784 37.6052 37.1124 37.8801 37.0904C38.8369 37.0189 39.0073 37.1564 38.7929 38.0966C38.3475 40.0211 37.8361 41.9291 37.3687 43.8536C36.9454 45.5967 36.544 47.3452 36.1426 49.0883C36.0601 49.4567 36.0711 49.8306 36.434 50.0725C36.7914 50.3145 37.1378 50.155 37.4677 49.9845C38.2265 49.5996 38.6664 48.8793 39.2328 48.291C39.4362 48.082 39.6396 47.6092 40.0245 47.9776C40.3105 48.2525 40.0245 48.5549 39.8266 48.7694C38.9193 49.7426 38.0451 50.7488 36.8354 51.4032C35.0923 52.3489 33.5362 51.5021 33.4538 49.5172C33.3933 48.115 33.8772 46.8229 34.1741 45.4922C34.3005 44.9369 34.4105 44.376 34.526 43.8206C34.482 43.7987 34.4325 43.7822 34.3775 43.7657Z" fill="#B40B7C"/>
<path d="M60.5396 30.3931C60.0998 30.4646 59.7753 30.712 59.4674 31.0309C57.6144 32.9719 55.7009 32.9169 53.9359 30.9045C53.507 30.4151 53.353 29.9312 53.6994 29.3319C54.0788 28.672 54.4527 28.0067 54.7826 27.3249C55.0741 26.7145 55.305 26.6046 55.8054 27.1874C56.5862 28.1002 57.0316 28.0507 57.7629 27.1104C59.4729 24.9275 61.3424 24.889 63.135 27.0005C63.3494 27.2534 63.5364 27.5393 63.7728 27.7758C64.4051 28.4081 65.021 28.4576 65.7248 27.8967C66.2691 27.4623 66.7695 26.9675 67.3029 26.5056C68.1167 25.8018 68.7875 25.6973 69.7112 26.2417C70.4975 26.7035 71.1739 27.3304 71.8117 27.9902C72.2296 28.4246 72.2626 28.8095 71.7292 29.1999C71.3113 29.5078 70.9319 29.8652 70.5525 30.2171C70.1346 30.6075 69.7717 30.9429 69.1559 30.4371C68.793 30.1401 68.3421 30.3656 68.0012 30.6845C67.5118 31.1464 67.0719 31.6578 66.5331 32.0537C65.2024 33.0379 63.2834 32.708 62.0133 31.3333C61.2655 30.5196 60.996 30.3491 60.5396 30.3931Z" fill="#B40B7C"/>
<path d="M17.255 45.3823C17.7004 45.1293 17.7773 44.7279 17.9148 44.3705C18.7341 42.1601 19.7678 40.0651 21.3074 38.2561C21.9617 37.4918 22.7041 36.7385 23.7873 37.1124C24.8595 37.4808 25.0739 38.5091 25.0684 39.5263C25.0629 40.2851 24.964 41.0439 24.854 41.7972C24.7165 42.6935 23.6938 43.3423 22.8085 43.1553C22.4126 43.0729 22.4511 42.7924 22.4841 42.523C22.5611 41.7642 22.6491 41.0109 22.7425 40.2521C22.7975 39.7847 22.858 39.2624 22.3686 39.0369C21.8298 38.7895 21.4449 39.2184 21.126 39.5813C19.9988 40.8569 19.2894 42.38 18.6406 43.9196C17.7279 46.0806 16.9086 48.28 16.2322 50.5289C15.9243 51.5462 14.8906 51.997 13.9338 51.5516C13.516 51.3592 13.6039 51.0568 13.6369 50.7104C13.8294 48.7034 14.3572 46.7569 14.6981 44.7774C15.0501 42.71 15.4734 40.6535 15.8968 38.6025C16.0563 37.8162 17.6289 37.0794 18.3547 37.3983C18.7176 37.5578 18.6791 37.8877 18.6186 38.1901C18.2612 39.9497 17.8928 41.7092 17.5244 43.4633C17.4034 44.0736 17.1945 44.6784 17.255 45.3823Z" fill="#B40B7C"/>
<path d="M45.1052 15.514C44.253 15.514 43.3952 15.536 42.5429 15.5085C41.8666 15.481 41.5422 15.7889 41.4212 16.4322C41.2672 17.2405 41.0858 18.0378 40.8823 18.8351C40.7559 19.3355 40.5799 19.8303 40.206 20.2152C39.7991 20.6386 39.3098 20.7156 38.7819 20.4902C38.2101 20.2482 38.1881 19.7698 38.3035 19.2585C39.0348 16.1133 39.7716 12.9681 40.5029 9.82294C40.6624 9.14662 40.6954 8.4483 41.1133 7.83246C41.5092 7.24412 42.037 6.99668 42.6694 7.15614C43.3952 7.33759 43.2852 8.01942 43.2027 8.53078C43.0048 9.70198 42.7519 10.8622 42.4604 12.0169C42.279 12.7317 42.5704 12.8472 43.1972 12.8362C44.7478 12.8197 46.2984 12.8307 47.8435 12.8856C48.8333 12.9241 49.2512 13.364 49.2457 14.1998C49.2402 14.9146 48.6298 15.481 47.7665 15.503C46.8758 15.5305 45.9905 15.5085 45.1052 15.514Z" fill="#B40B7C"/>
<path d="M52.0063 28.2269C52.0063 28.6942 52.0008 28.9692 52.0063 29.2441C52.0283 29.8379 51.7919 30.1513 51.1541 30.1403C49.5705 30.1074 48.4488 30.7287 48.1024 32.3893C48.0144 32.8127 47.7669 33.0106 47.3161 32.9391C46.8982 32.8731 46.4033 33.0711 46.2383 32.3948C46.0184 31.4765 45.3311 31.1741 44.4293 31.2346C43.8245 31.2786 43.2196 31.383 42.6093 31.2895C41.5646 31.1246 40.7783 30.3548 40.6298 29.3101C40.5693 28.8922 40.5363 28.5073 41.1137 28.4303C41.5426 28.3698 41.4601 28.1004 41.3226 27.8255C41.0972 27.3856 40.9872 26.9182 40.9597 26.4233C40.8608 24.6583 42.3344 23.3496 44.0444 23.828C44.8802 24.0589 45.4356 23.8995 46.1064 23.3936C47.8164 22.1015 49.8839 22.8493 50.4942 24.9167C50.6812 25.5381 50.7692 26.0934 51.5335 26.4343C52.3307 26.7807 51.9898 27.7155 52.0063 28.2269ZM49.4825 28.8097C49.8839 28.8097 50.1258 28.8152 50.3733 28.8097C50.8076 28.7987 51.0606 28.5788 51.0991 28.1499C51.1376 27.7595 51.0441 27.3471 50.6152 27.2921C49.8234 27.1931 49.7519 26.6873 49.7464 26.0549C49.7354 25.4996 49.5705 24.9827 49.2626 24.5098C48.4818 23.3001 47.0411 23.1352 46.2713 24.3284C45.628 25.3181 45.1441 25.4171 44.1929 24.7683C43.2636 24.1359 42.3454 24.5483 41.9275 25.5985C41.3501 27.0392 42.2794 28.5403 43.841 28.7547C44.5118 28.8482 45.0067 28.7987 45.2101 28.0069C45.3861 27.3141 45.826 26.9017 46.6287 27.1931C46.7607 27.2426 46.9367 27.2316 47.0741 27.1876C47.7449 26.9567 48.1628 27.3746 48.2288 27.8804C48.3443 28.8427 48.9436 28.8537 49.4825 28.8097ZM46.7497 29.0351C46.5793 28.6832 46.4308 28.3698 46.2658 28.0289C45.9524 28.2214 45.8424 28.4743 45.7985 28.7382C45.6665 29.519 45.1551 29.7005 44.4678 29.6235C44.1379 29.585 43.808 29.5135 43.4726 29.5135C43.1482 29.5135 42.7358 28.9142 42.5653 29.431C42.3839 29.9809 43.0877 29.9644 43.4286 30.1458C43.599 30.2393 43.841 30.2118 44.0554 30.2118C44.9352 30.2118 45.8095 30.2228 46.6507 30.5692C47.0411 30.7287 48.2398 29.684 48.0309 29.4035C47.734 29.0131 47.734 28.4963 47.437 28.1224C47.0466 28.3258 47.1786 28.7877 46.7497 29.0351Z" fill="#B40B7C"/>
<path d="M139.664 24.7297C139.664 28.8592 136.365 32.1638 132.23 32.1638C128.111 32.1638 124.774 28.7822 124.79 24.6198C124.801 20.5948 128.177 17.2847 132.252 17.2902C136.381 17.2902 139.664 20.5838 139.664 24.7297ZM125.725 24.7462C125.731 28.3863 128.733 31.3665 132.329 31.3005C135.815 31.24 138.773 28.2433 138.801 24.7517C138.828 21.2381 135.793 18.1699 132.285 18.1644C128.65 18.1534 125.72 21.0952 125.725 24.7462Z" fill="#B40B7C"/>
<path d="M71.9439 8.19562C71.702 9.28984 71.4105 10.626 71.1026 11.9621C70.5253 14.453 69.9314 16.9383 69.3596 19.4237C69.2441 19.9186 69.0297 20.3474 68.6393 20.6609C68.1994 21.0128 67.699 21.0843 67.1821 20.8148C66.6983 20.5674 66.7258 20.0945 66.8027 19.6876C67.0832 18.2855 67.3966 16.8834 67.721 15.4922C68.2544 13.1773 68.8262 10.8734 69.3431 8.55303C69.4695 7.98118 69.7555 7.53579 70.1404 7.1509C70.4813 6.80998 70.9322 6.70551 71.4105 6.88696C71.9164 7.07392 71.9439 7.4973 71.9439 8.19562Z" fill="#B40B7C"/>
<path d="M32.2658 17.3123C33.0631 17.4387 34.1243 17.0373 35.0921 17.6202C35.9278 18.1261 36.3402 18.8849 36.0763 19.6657C35.7904 20.5234 35.0866 20.9138 34.2398 20.9248C32.7827 20.9358 31.3255 20.8753 29.8739 20.8204C28.8127 20.7764 28.0264 20.0671 28.0099 19.1928C27.9934 18.1865 28.7577 17.3893 29.8684 17.3233C30.5887 17.2738 31.32 17.3123 32.2658 17.3123ZM32.2438 19.7206C32.2493 19.7206 32.4637 19.7041 32.6727 19.7261C33.0741 19.7591 33.426 19.7206 33.459 19.2093C33.492 18.7419 33.1896 18.5439 32.7882 18.5055C32.3373 18.4615 31.8754 18.4615 31.4245 18.456C30.9901 18.4505 30.6162 18.5549 30.6217 19.0938C30.6327 19.6602 30.9956 19.8031 31.485 19.7701C31.6719 19.7591 31.8534 19.7481 32.2438 19.7206Z" fill="#B40B7C"/>
<path d="M131.515 20.9304C131.884 20.9304 132.247 20.9469 132.615 20.9249C133.572 20.8754 134.303 21.2163 134.638 22.1456C134.99 23.1188 134.688 24.0866 133.825 24.7244C133.445 25.0048 133.379 25.1808 133.687 25.5822C134.149 26.187 134.523 26.8523 134.908 27.5122C135.062 27.7761 135.408 28.1115 134.968 28.3699C134.594 28.5899 134.16 28.4799 133.913 28.106C133.539 27.5507 133.236 26.9513 132.873 26.385C132.494 25.7911 132.098 25.2138 131.268 25.1863C130.63 25.1643 130.284 25.3622 130.311 26.0605C130.339 26.6379 130.317 27.2207 130.295 27.7981C130.284 28.139 130.135 28.3974 129.75 28.4029C129.371 28.4084 129.195 28.161 129.189 27.8201C129.178 25.7196 129.178 23.6137 129.189 21.5132C129.189 21.0953 129.481 20.9414 129.866 20.9359C130.416 20.9359 130.965 20.9359 131.515 20.9304ZM131.878 24.0701C131.955 24.0646 132.258 24.0756 132.56 24.0261C133.148 23.9271 133.638 23.6192 133.632 22.9813C133.627 22.3435 133.137 22.0356 132.544 21.9531C132.153 21.9036 131.752 21.9476 131.361 21.9091C130.575 21.8321 130.267 22.1511 130.3 22.9539C130.344 24.0151 130.372 24.0701 131.878 24.0701Z" fill="#B40B7C"/>
</svg>
