<svg width="140" height="67" viewBox="0 0 140 67" fill="none" xmlns="http://www.w3.org/2000/svg">
<path d="M80.0982 44.2773C80.3072 43.678 80.5271 43.0896 80.7141 42.4848C82.0282 38.2014 83.5513 33.995 85.0689 29.7831C86.5755 25.5932 88.1866 21.4528 89.9297 17.3563C91.3153 14.1012 92.7724 10.8735 94.7409 7.9263C95.6866 6.50767 96.5664 4.95158 98.271 4.19827C99.8656 3.49446 101.653 4.14329 102.301 5.75437C103.126 7.79983 103.082 9.91678 102.725 12.0502C102.527 13.2214 102.367 14.3981 102.12 15.5583C101.213 19.7867 100.042 23.9491 98.8593 28.1115C97.6386 32.4169 96.5554 36.7553 95.3842 41.0717C95.0103 42.4573 94.6859 43.8484 94.5264 45.2671C94.488 45.6025 94.323 46.1083 94.7519 46.2403C95.1313 46.3558 95.2358 45.8499 95.4007 45.586C96.2805 44.1783 96.7644 42.5893 97.3032 41.0387C99.1947 35.6006 100.982 30.124 102.868 24.6804C104.682 19.4403 106.634 14.2497 109.202 9.32294C110.06 7.67337 111 6.05129 112.468 4.8526C114.789 2.9501 116.504 4.24776 117.23 6.51317C117.769 8.19573 117.824 9.93328 117.692 11.6708C117.444 14.8875 116.917 18.0767 116.213 21.2218C115.108 26.187 113.865 31.1192 112.683 36.068C111.643 40.4228 110.621 44.7777 109.691 49.1545C109.301 51.0021 108.911 52.8441 108.553 54.7026C108.372 55.6483 108.13 55.7473 107.36 55.181C105.315 53.6854 105.194 54.1967 105.771 51.4639C107.344 44.0079 109.164 36.6123 111.011 29.2222C112.457 23.4268 113.991 17.6533 115.047 11.7698C115.339 10.1367 115.366 8.49815 115.339 6.85408C115.328 6.19975 115.267 5.49594 114.613 5.18802C113.903 4.8581 113.244 5.21551 112.672 5.66639C111.594 6.51317 110.929 7.68436 110.263 8.85006C108.047 12.732 106.475 16.889 104.946 21.0679C103.22 25.7856 101.636 30.5529 100.02 35.3092C98.5899 39.5156 97.1548 43.7275 95.3292 47.7854C94.7739 49.0226 94.246 50.3202 93.1463 51.233C92.7449 51.5629 92.338 51.9423 91.7607 51.6399C91.2218 51.365 91.1118 50.8261 91.1173 50.3092C91.1448 48.7861 91.1943 47.2575 91.4528 45.7564C92.6349 38.9602 94.455 32.3234 96.2585 25.6757C97.1218 22.4975 98.04 19.3358 98.7383 16.1192C99.2882 13.5953 99.959 11.088 100.245 8.50365C100.338 7.65137 100.415 6.7991 100.184 5.95781C99.9315 5.02306 99.3102 4.72614 98.4469 5.15502C97.5507 5.60041 96.9018 6.33172 96.3025 7.10702C94.0976 9.95527 92.6294 13.2159 91.1888 16.4711C89.1873 20.9799 87.4113 25.5877 85.7507 30.2395C84.2276 34.5119 82.7375 38.7952 81.3464 43.1171C80.5051 45.7234 79.5814 48.3023 78.8391 50.9416C78.6851 51.4804 78.3552 51.7554 77.7723 51.7334C77.162 51.7114 76.5516 51.7334 75.9413 51.7279C75.3035 51.7224 75.0835 51.4419 75.2375 50.7931C76.4417 45.7564 77.6569 40.7252 78.8006 35.6776C79.6803 31.7846 80.5766 27.8971 81.3684 23.9876C82.2207 19.7757 83.0509 15.5638 83.5788 11.3024C83.7823 9.66385 83.7438 8.01428 83.6558 6.37571C83.6228 5.82035 83.4633 5.2375 82.831 5.07255C82.1987 4.90759 81.7973 5.34747 81.4674 5.79836C80.1477 7.61838 79.2624 9.65835 78.4761 11.7423C77.1895 15.1624 75.8588 18.5715 74.9461 22.1181C74.8361 22.558 74.6492 22.8604 74.1268 22.7119C73.7474 22.6075 73.247 22.6899 73.412 21.9641C73.5219 21.4803 72.9941 21.1833 72.7357 20.8259C72.4112 20.3751 72.2353 19.9407 72.4497 19.3853C73.8464 15.8112 75.177 12.2042 77.1125 8.86656C77.9373 7.44243 78.8445 6.06779 80.1532 5.01206C80.835 4.46221 81.6323 4.14329 82.4736 3.98933C83.7163 3.76389 84.8325 4.42921 85.4703 5.75437C86.0037 6.85958 86.3116 8.03077 86.3996 9.26245C86.6415 12.6276 86.2291 15.9377 85.6353 19.2478C85.1569 21.9146 84.6565 24.576 84.0462 27.2153C83.04 31.5426 82.1272 35.8865 80.923 40.1644C80.5491 41.495 80.0927 42.8312 80.0982 44.2773Z" fill="#1E1E1E"/>
<path d="M14.2808 23.9104C13.6429 23.9104 12.9996 23.9434 12.3618 23.8994C11.559 23.8444 11.2291 24.2238 11.0696 24.9716C10.3988 28.1608 9.69497 31.3445 8.99115 34.5281C7.78147 40.0047 6.56079 45.4758 5.33461 50.9469C5.16415 51.7002 5.15315 52.4645 5.22464 53.2178C5.30162 53.9931 5.79099 54.3175 6.56628 54.1965C7.55603 54.037 8.26534 53.3882 8.95816 52.7559C9.85992 51.9366 10.6792 51.0293 11.5755 50.21C11.8944 49.9186 12.2848 49.2973 12.7797 49.7482C13.2855 50.21 12.9171 50.7709 12.5487 51.2053C10.8991 53.1298 9.15061 54.9388 7.00067 56.3354C5.51606 57.2977 3.99846 57.7321 2.36538 56.8468C0.715814 55.956 0.154961 54.389 0.0669839 52.6404C-0.0704801 49.9296 0.65533 47.3233 1.18319 44.7005C2.02997 40.5216 2.89324 36.3482 3.75652 32.1693C4.24039 29.8159 4.74626 27.468 5.21364 25.1146C5.41708 24.0864 5.30161 23.9819 4.2184 23.9104C3.52008 23.8664 2.82176 23.8444 2.84376 22.8657C2.85475 22.3983 3.0637 22.1179 3.54757 22.0849C3.64105 22.0794 3.72903 22.0739 3.8225 22.0739C5.90646 21.9639 5.93395 21.9694 6.41232 19.9514C7.74298 14.2879 9.06263 8.6244 10.3493 2.95537C10.5802 1.94914 10.9321 1.22882 12.0648 0.997885C13.1316 0.777943 14.1653 0.371049 15.2155 0.0686276C15.8699 -0.118324 16.2328 0.0576305 16.0678 0.832928C15.144 5.21528 14.2313 9.60314 13.313 13.9855C12.8291 16.2784 12.3233 18.5713 11.8614 20.8697C11.6689 21.8429 11.8779 22.0464 12.8951 22.0574C14.0553 22.0684 15.21 22.0629 16.3702 22.0629C17.0685 22.0629 17.4699 22.3543 17.4589 23.0966C17.4534 23.8279 16.9641 23.9104 16.3977 23.9049C15.6829 23.9049 14.9791 23.9049 14.2808 23.9104Z" fill="#1E1E1E"/>
<path d="M67.3306 50.3089C68.0674 49.6821 68.7987 49.0497 69.5355 48.4229C69.7445 48.2469 69.9369 48.049 70.1514 47.884C70.2998 47.7741 70.4868 47.6916 70.6407 47.873C70.7617 48.0105 70.6957 48.1645 70.6078 48.2909C70.4373 48.5384 70.2778 48.8023 70.0634 49.0167C69.8105 49.2752 69.53 49.5336 69.2221 49.7205C67.2756 50.9027 66.5608 52.7173 66.0824 54.8837C65.3016 58.4413 64.3284 61.9933 62.118 65.0121C61.4581 65.9138 60.6059 66.6011 59.5062 66.9091C58.357 67.228 57.2957 66.6891 56.8339 65.5729C56.2895 64.2642 56.427 62.9666 56.8449 61.6469C57.5597 59.376 58.9618 57.567 60.5234 55.835C61.3647 54.9002 62.2939 54.0809 63.2177 53.2451C63.784 52.7338 63.905 52.0409 64.0645 51.3591C64.5153 49.4126 64.9497 47.4606 65.4391 45.2887C64.6143 46.097 64.3559 46.9988 63.839 47.7246C62.9538 48.9672 62.0575 50.1989 60.7763 51.0622C59.4017 51.9915 58.1535 51.986 57.1803 51.0622C56.5974 50.5068 56.361 49.7425 56.2895 49.0002C55.9816 45.6901 56.8888 42.7869 59.1213 40.2465C60.8038 38.333 62.8383 37.2498 65.3291 36.9529C66.6543 36.7934 67.9355 37.0134 69.1891 37.4533C69.4861 37.5577 69.7995 37.7172 69.739 38.0856C69.651 38.619 69.6675 39.2018 69.2771 39.6307C69.1341 39.7901 68.9527 39.6142 68.7987 39.5097C68.3259 39.1743 67.8585 38.8389 67.3691 38.531C65.7745 37.5192 64.1689 37.6677 62.9098 39.0478C60.4684 41.7036 59.3797 44.9038 59.3687 48.4724C59.3632 49.9295 59.9295 50.2319 61.1942 49.5336C62.3984 48.8683 62.9922 47.6586 63.6906 46.5644C64.7243 44.9423 65.4666 43.1663 66.1869 41.3847C66.6378 40.274 67.93 39.9991 68.8207 40.7909C69.1341 41.0713 69.0132 41.4012 68.9472 41.7256C68.4083 44.1615 67.8695 46.5974 67.3306 49.0277C67.2481 49.4071 67.1767 49.7865 67.0997 50.1714C67.1767 50.2209 67.2536 50.2649 67.3306 50.3089ZM63.3552 54.4603C63.2892 54.4218 63.2232 54.3833 63.1572 54.3393C62.5304 54.9937 61.887 55.6315 61.2877 56.3133C59.5117 58.3368 58.159 60.5802 57.7851 63.313C57.6806 64.0828 57.6586 64.8306 58.016 65.5454C58.324 66.1668 58.7968 66.2657 59.3852 65.9853C59.7811 65.7983 60.0285 65.4629 60.2595 65.0835C61.0128 63.8409 61.3097 62.4387 61.7551 61.0806C62.4644 58.9141 62.7833 56.6597 63.3552 54.4603Z" fill="#1E1E1E"/>
<path d="M128.898 48.137C128.002 48.9013 127.144 49.7151 126.199 50.4134C125.429 50.9798 125.049 51.7001 124.851 52.6019C124.065 56.1484 123.163 59.6565 121.354 62.8512C120.497 64.3633 119.633 65.8699 117.835 66.5187C115.977 67.1896 114.52 66.2438 114.404 64.2588C114.25 61.636 115.284 59.4476 116.84 57.4461C118.16 55.7525 119.776 54.3669 121.492 53.0912C121.739 52.9043 121.976 52.7008 122.058 52.3929C122.894 49.2203 123.697 46.0366 123.95 42.7045C123.493 43.6887 123.042 44.6784 122.57 45.6572C121.734 47.3892 120.684 48.9893 119.435 50.4519C118.952 51.0183 118.347 51.4087 117.643 51.6781C116.186 52.239 115.19 51.7276 114.861 50.177C114.536 48.6539 114.778 47.1198 115.064 45.6407C115.509 43.3093 116.136 41.0164 116.714 38.7125C116.945 37.7942 118.655 36.8815 119.551 37.1564C120.046 37.3049 119.853 37.6843 119.782 37.9922C119.364 39.6747 118.968 41.3683 118.506 43.0344C118.022 44.7664 117.698 46.537 117.302 48.291C117.241 48.5549 117.214 48.8354 117.214 49.1048C117.219 50.023 117.725 50.353 118.6 50.0395C119.265 49.8031 119.721 49.3082 120.139 48.7859C121.558 47.0098 122.592 45.0084 123.422 42.9024C124.049 41.3188 124.643 39.7187 125.269 38.1296C125.588 37.3269 127.089 36.8705 127.854 37.3159C128.167 37.4973 128.107 37.7722 128.052 38.0362C127.535 40.4775 127.018 42.9189 126.501 45.3603C126.237 46.6084 125.962 47.8566 125.698 49.1103C125.654 49.3137 125.555 49.5502 125.792 49.6931C126.006 49.8196 126.199 49.6546 126.386 49.5612C127.26 49.1433 127.859 48.3185 128.75 47.9336C128.799 48.0051 128.849 48.0711 128.898 48.137ZM115.35 63.8134C115.372 64.1599 115.366 64.4073 115.405 64.6437C115.504 65.2156 115.74 65.6885 116.34 65.8919C116.934 66.0954 117.318 65.7544 117.698 65.3695C118.05 65.0176 118.314 64.6217 118.528 64.1763C119.958 61.2181 120.673 58.029 121.481 54.8728C121.552 54.5924 121.662 54.2184 121.305 54.059C121.008 53.927 120.799 54.2184 120.623 54.4109C119.435 55.6701 118.187 56.8798 117.263 58.3644C116.197 60.0689 115.52 61.9054 115.35 63.8134Z" fill="#1E1E1E"/>
<path d="M61.2494 7.08514C63.13 7.08514 65.016 7.09064 66.8965 7.08514C67.8752 7.08514 68.1886 7.44805 67.9192 8.49278C67.2759 11.0276 66.5721 13.5515 65.9067 16.0808C65.6098 17.197 65.3514 18.3242 65.038 19.4349C64.708 20.6116 64.4441 20.8041 63.2344 20.8096C59.6439 20.8151 56.0478 20.8151 52.4572 20.8096C52.1548 20.8096 51.8414 20.7986 51.5555 20.7216C51.0991 20.6006 50.8407 20.3752 50.9946 19.7923C51.9844 16.0588 52.9136 12.3143 53.9034 8.58075C54.2333 7.33258 54.5797 7.14563 55.8609 7.15113C57.6534 7.16212 59.4514 7.15113 61.2439 7.15113C61.2494 7.12913 61.2494 7.10714 61.2494 7.08514ZM58.4452 17.4554C58.4452 17.4609 58.4452 17.4609 58.4452 17.4664C59.5724 17.4664 60.6996 17.4554 61.8268 17.4719C62.3217 17.4774 62.6296 17.3015 62.7671 16.8066C63.3169 14.8436 63.8723 12.8806 64.4551 10.9231C64.6421 10.2853 64.4826 10.0214 63.7953 10.0324C61.5684 10.0544 59.3469 10.0489 57.12 10.0324C56.5757 10.0269 56.2897 10.2303 56.1468 10.7637C55.6024 12.7597 55.0416 14.7501 54.4587 16.7351C54.3103 17.2465 54.4147 17.4774 54.9756 17.4719C56.1303 17.4499 57.285 17.4554 58.4452 17.4554Z" fill="#1E1E1E"/>
<path d="M29.1595 6.59562C30.8035 6.59562 32.4421 6.60661 34.0862 6.59012C35.5708 6.57362 36.1646 7.94277 35.5708 9.17444C35.1089 10.1367 34.3666 10.8515 33.5363 11.4838C32.6785 12.1382 32.684 12.2261 33.6683 12.7265C34.592 13.1939 35.5213 13.6448 36.4395 14.1232C37.6052 14.7335 37.9681 15.3933 37.5832 16.1741C37.1379 17.0814 36.1371 17.3948 35.0704 16.8889C33.4978 16.1521 31.9307 15.4043 30.4076 14.5795C29.7478 14.2221 29.2474 14.2496 28.6426 14.64C26.4212 16.0806 24.1723 17.4883 21.9398 18.9124C21.5769 19.1433 21.214 19.3523 20.7906 19.4568C20.0483 19.6382 19.4215 19.4403 19.0806 18.7584C18.7342 18.0656 18.9871 17.4113 19.5975 16.9934C20.8786 16.1246 22.1983 15.3053 23.5124 14.4751C25.5689 13.1719 27.6254 11.8742 29.5498 10.3786C29.7148 10.2522 29.9512 10.1092 29.8853 9.87826C29.7973 9.57584 29.4894 9.65832 29.2584 9.65282C27.8563 9.63632 26.4542 9.63083 25.052 9.62533C24.6231 9.62533 24.1943 9.61983 23.7929 9.45487C23.2265 9.21293 22.8196 8.83353 22.7701 8.17371C22.7261 7.54687 23.0506 7.13998 23.5564 6.83755C23.9303 6.61211 24.3317 6.49664 24.7716 6.49664C26.2342 6.50214 27.6968 6.49664 29.1595 6.49664C29.1595 6.54063 29.1595 6.56812 29.1595 6.59562Z" fill="#1E1E1E"/>
<path d="M33.8665 32.0922C33.2397 32.0042 32.5908 31.7897 32.03 31.3224C31.5846 30.9539 31.1447 30.569 30.6553 30.2721C29.7866 29.7388 28.8023 29.8322 28.0215 30.4591C27.6916 30.723 27.3067 30.9539 27.0373 31.2729C25.4427 33.1589 23.7216 32.554 22.0941 31.2124C21.7642 30.9429 21.4837 30.613 21.1373 30.3711C20.461 29.8982 19.7792 29.8212 19.2018 30.5416C18.7839 31.0584 18.4045 31.0034 18.0141 30.5196C17.8217 30.2831 17.6292 30.0467 17.4093 29.8377C16.3371 28.804 16.2931 28.672 17.1014 27.3964C17.4423 26.8575 17.8437 26.3516 18.2891 25.9008C19.3668 24.8066 20.7634 24.7076 22.0061 25.6313C22.6659 26.1207 23.2598 26.6926 23.9141 27.1819C24.7004 27.7703 25.4317 27.6658 26.075 26.918C26.273 26.6871 26.4324 26.4176 26.6469 26.2087C28.6539 24.2127 29.3577 24.1852 31.5791 25.9832C31.7935 26.1537 32.008 26.3242 32.2059 26.5111C33.652 27.8638 34.5978 27.9022 35.9065 26.4506C36.5333 25.7633 36.7917 25.8128 37.1546 26.6046C37.4461 27.2369 37.8365 27.8253 38.1939 28.4246C38.3588 28.6995 38.4413 28.969 38.2818 29.2824C37.721 30.3931 35.1477 32.0647 33.8665 32.0922Z" fill="#1E1E1E"/>
<path d="M44.7097 45.2557C45.782 42.8804 46.7827 40.4995 48.4763 38.4925C48.7292 38.1901 49.0206 37.9151 49.334 37.6787C50.1973 37.0134 51.176 36.7989 52.1658 37.2718C53.139 37.7337 53.4799 38.6575 53.5294 39.6967C53.6174 41.6487 53.073 43.4962 52.6002 45.3547C52.2648 46.6799 51.8909 47.9995 51.6819 49.3577C51.6159 49.7756 51.5939 50.1879 51.9623 50.4354C52.3582 50.7048 52.6442 50.3254 52.9246 50.1275C53.6779 49.5941 54.2277 48.8573 54.7721 48.126C54.9206 47.928 55.047 47.6696 55.344 47.8621C55.6629 48.0655 55.5364 48.3294 55.3714 48.5714C54.5522 49.7975 53.5844 50.9028 52.2868 51.6231C51.4675 52.0794 50.5327 52.2499 49.6804 51.6506C48.7402 50.9907 48.5697 49.979 48.7567 48.9508C49.1361 46.8833 49.6035 44.8378 50.0378 42.7814C50.2193 41.9181 50.5272 41.0823 50.5492 40.1916C50.5657 39.6527 50.5272 39.1083 49.9499 38.8774C49.389 38.6575 49.0371 39.0698 48.7182 39.4492C47.6295 40.7469 46.8872 42.2645 46.2328 43.7931C45.2651 46.053 44.3413 48.3459 43.676 50.7213C43.4506 51.5296 43.0107 51.7275 42.2024 51.6451C40.5088 51.4636 40.4758 51.3536 40.8498 49.6381C41.5206 46.5479 42.0704 43.4302 42.6478 40.3125C42.7687 39.6582 43.0932 39.0534 43.0767 38.3605C43.0657 37.9811 43.3131 37.7667 43.7035 37.7062C44.3358 37.6072 44.9627 37.4973 45.5895 37.3598C46.3153 37.2003 46.4528 37.5028 46.3043 38.1516C45.8314 40.197 45.3861 42.2535 44.9297 44.3045C44.8527 44.6124 44.7812 44.9368 44.7097 45.2557Z" fill="#1E1E1E"/>
<path d="M34.4275 43.7657C34.1856 44.343 33.9436 44.9259 33.7072 45.5032C32.9154 47.4717 31.8707 49.2752 30.2761 50.7213C29.2424 51.6561 28.0492 52.063 26.7405 51.5296C25.5253 51.0293 25.0085 49.9021 24.9315 48.6649C24.6346 44.0736 26.2841 40.373 30.1496 37.7887C31.4143 36.9419 32.8494 36.524 34.4055 36.799C35.1313 36.9309 35.3568 37.5413 34.9609 38.1571C34.7409 38.498 34.5265 38.3661 34.2681 38.2231C32.9484 37.4973 32.2666 37.5908 31.2493 38.7345C28.896 41.3848 27.8952 44.5355 27.9062 48.0435C27.9062 48.8298 28.1482 49.5666 28.9729 49.7756C29.7427 49.9735 30.3421 49.5502 30.8425 48.9288C32.6515 46.6799 33.6302 44.0296 34.598 41.3683C34.9719 40.3401 35.3128 39.2953 35.6537 38.2561C35.8846 37.5413 36.3025 37.1124 37.1108 37.1619C37.3802 37.1784 37.6552 37.1124 37.9301 37.0904C38.8869 37.0189 39.0573 37.1564 38.8429 38.0966C38.3975 40.0211 37.8861 41.9291 37.4187 43.8536C36.9953 45.5967 36.5939 47.3452 36.1926 49.0883C36.1101 49.4567 36.1211 49.8306 36.484 50.0725C36.8414 50.3145 37.1878 50.155 37.5177 49.9845C38.2765 49.5996 38.7164 48.8793 39.2827 48.291C39.4862 48.082 39.6896 47.6092 40.0745 47.9776C40.3605 48.2525 40.0745 48.5549 39.8766 48.7694C38.9693 49.7426 38.0951 50.7488 36.8854 51.4032C35.1423 52.3489 33.5862 51.5021 33.5038 49.5172C33.4433 48.115 33.9271 46.8229 34.2241 45.4922C34.3505 44.9369 34.4605 44.376 34.576 43.8206C34.532 43.7987 34.4825 43.7822 34.4275 43.7657Z" fill="#1E1E1E"/>
<path d="M60.5896 30.3931C60.1497 30.4646 59.8253 30.712 59.5174 31.0309C57.6644 32.9719 55.7509 32.9169 53.9859 30.9045C53.557 30.4151 53.403 29.9312 53.7494 29.3319C54.1288 28.672 54.5027 28.0067 54.8326 27.3249C55.1241 26.7145 55.355 26.6046 55.8554 27.1874C56.6362 28.1002 57.0815 28.0507 57.8129 27.1104C59.5229 24.9275 61.3924 24.889 63.1849 27.0005C63.3994 27.2534 63.5863 27.5393 63.8228 27.7758C64.4551 28.4081 65.071 28.4576 65.7748 27.8967C66.3191 27.4623 66.8195 26.9675 67.3529 26.5056C68.1666 25.8018 68.8375 25.6973 69.7612 26.2417C70.5475 26.7035 71.2238 27.3304 71.8617 27.9902C72.2796 28.4246 72.3126 28.8095 71.7792 29.1999C71.3613 29.5078 70.9819 29.8652 70.6025 30.2171C70.1846 30.6075 69.8217 30.9429 69.2059 30.4371C68.843 30.1401 68.3921 30.3656 68.0512 30.6845C67.5618 31.1464 67.1219 31.6578 66.5831 32.0537C65.2524 33.0379 63.3334 32.708 62.0632 31.3333C61.3154 30.5196 61.046 30.3491 60.5896 30.3931Z" fill="#1E1E1E"/>
<path d="M17.3049 45.3823C17.7503 45.1293 17.8273 44.7279 17.9647 44.3705C18.784 42.1601 19.8177 40.0651 21.3573 38.2561C22.0117 37.4918 22.754 36.7385 23.8372 37.1124C24.9094 37.4808 25.1239 38.5091 25.1184 39.5263C25.1129 40.2851 25.0139 41.0439 24.9039 41.7972C24.7665 42.6935 23.7437 43.3423 22.8585 43.1553C22.4626 43.0729 22.501 42.7924 22.534 42.523C22.611 41.7642 22.699 41.0109 22.7925 40.2521C22.8475 39.7847 22.9079 39.2624 22.4186 39.0369C21.8797 38.7895 21.4948 39.2184 21.1759 39.5813C20.0487 40.8569 19.3394 42.38 18.6905 43.9196C17.7778 46.0806 16.9585 48.28 16.2822 50.5289C15.9743 51.5462 14.9405 51.997 13.9838 51.5517C13.5659 51.3592 13.6539 51.0568 13.6868 50.7104C13.8793 48.7034 14.4072 46.7569 14.7481 44.7774C15.1 42.71 15.5234 40.6535 15.9468 38.6025C16.1062 37.8162 17.6788 37.0794 18.4046 37.3983C18.7675 37.5578 18.729 37.8877 18.6685 38.1901C18.3111 39.9497 17.9427 41.7092 17.5743 43.4633C17.4534 44.0736 17.2444 44.6784 17.3049 45.3823Z" fill="#1E1E1E"/>
<path d="M45.1552 15.514C44.303 15.514 43.4452 15.536 42.5929 15.5085C41.9166 15.481 41.5922 15.7889 41.4712 16.4322C41.3172 17.2405 41.1358 18.0378 40.9323 18.8351C40.8059 19.3355 40.6299 19.8303 40.256 20.2152C39.8491 20.6386 39.3597 20.7156 38.8319 20.4902C38.26 20.2482 38.238 19.7698 38.3535 19.2585C39.0848 16.1133 39.8216 12.9681 40.5529 9.82294C40.7124 9.14662 40.7454 8.4483 41.1633 7.83246C41.5592 7.24412 42.087 6.99668 42.7194 7.15614C43.4452 7.33759 43.3352 8.01942 43.2527 8.53078C43.0548 9.70198 42.8018 10.8622 42.5104 12.0169C42.329 12.7317 42.6204 12.8472 43.2472 12.8362C44.7978 12.8197 46.3484 12.8307 47.8935 12.8856C48.8833 12.9241 49.3011 13.364 49.2956 14.1998C49.2901 14.9146 48.6798 15.481 47.8165 15.503C46.9258 15.5305 46.0405 15.5085 45.1552 15.514Z" fill="#1E1E1E"/>
<path d="M52.0563 28.2269C52.0563 28.6943 52.0508 28.9692 52.0563 29.2441C52.0783 29.838 51.8419 30.1514 51.204 30.1404C49.6205 30.1074 48.4988 30.7287 48.1523 32.3893C48.0644 32.8127 47.8169 33.0106 47.366 32.9391C46.9482 32.8732 46.4533 33.0711 46.2883 32.3948C46.0684 31.4765 45.3811 31.1741 44.4793 31.2346C43.8745 31.2786 43.2696 31.3831 42.6593 31.2896C41.6146 31.1246 40.8283 30.3548 40.6798 29.3101C40.6193 28.8922 40.5863 28.5073 41.1637 28.4303C41.5926 28.3698 41.5101 28.1004 41.3726 27.8255C41.1472 27.3856 41.0372 26.9182 41.0097 26.4234C40.9107 24.6583 42.3844 23.3497 44.0944 23.828C44.9302 24.059 45.4855 23.8995 46.1564 23.3936C47.8664 22.1015 49.9339 22.8493 50.5442 24.9167C50.7312 25.5381 50.8191 26.0934 51.5834 26.4343C52.3807 26.7808 52.0398 27.7155 52.0563 28.2269ZM49.5325 28.8097C49.9339 28.8097 50.1758 28.8152 50.4232 28.8097C50.8576 28.7987 51.1106 28.5788 51.1491 28.1499C51.1875 27.7595 51.0941 27.3471 50.6652 27.2921C49.8734 27.1932 49.8019 26.6873 49.7964 26.0549C49.7854 25.4996 49.6205 24.9827 49.3125 24.5099C48.5317 23.3002 47.0911 23.1352 46.3213 24.3284C45.678 25.3181 45.1941 25.4171 44.2429 24.7683C43.3136 24.1359 42.3953 24.5483 41.9775 25.5986C41.4001 27.0392 42.3294 28.5403 43.891 28.7547C44.5618 28.8482 45.0567 28.7987 45.2601 28.0069C45.4361 27.3141 45.8759 26.9017 46.6787 27.1932C46.8107 27.2426 46.9866 27.2316 47.1241 27.1877C47.7949 26.9567 48.2128 27.3746 48.2788 27.8805C48.3943 28.8427 48.9936 28.8537 49.5325 28.8097ZM46.7997 29.0352C46.6292 28.6833 46.4808 28.3698 46.3158 28.0289C46.0024 28.2214 45.8924 28.4743 45.8484 28.7382C45.7165 29.519 45.2051 29.7005 44.5178 29.6235C44.1879 29.585 43.858 29.5135 43.5226 29.5135C43.1981 29.5135 42.7857 28.9142 42.6153 29.4311C42.4338 29.9809 43.1377 29.9644 43.4786 30.1459C43.649 30.2394 43.891 30.2119 44.1054 30.2119C44.9852 30.2119 45.8594 30.2229 46.7007 30.5693C47.0911 30.7287 48.2898 29.684 48.0809 29.4036C47.7839 29.0132 47.7839 28.4963 47.487 28.1224C47.0966 28.3259 47.2286 28.7877 46.7997 29.0352Z" fill="#1E1E1E"/>
<path d="M139.714 24.7297C139.714 28.8591 136.415 32.1638 132.28 32.1638C128.161 32.1638 124.824 28.7822 124.84 24.6198C124.851 20.5948 128.227 17.2847 132.302 17.2902C136.431 17.2902 139.714 20.5838 139.714 24.7297ZM125.775 24.7462C125.781 28.3863 128.783 31.3665 132.379 31.3005C135.865 31.24 138.823 28.2433 138.851 24.7517C138.878 21.2381 135.843 18.1699 132.335 18.1644C128.7 18.1534 125.77 21.0952 125.775 24.7462Z" fill="#1E1E1E"/>
<path d="M71.9939 8.19562C71.7519 9.28984 71.4605 10.626 71.1526 11.9621C70.5752 14.453 69.9814 16.9383 69.4096 19.4237C69.2941 19.9186 69.0796 20.3474 68.6892 20.6609C68.2494 21.0128 67.749 21.0843 67.2321 20.8148C66.7482 20.5674 66.7757 20.0945 66.8527 19.6876C67.1331 18.2855 67.4466 16.8834 67.771 15.4922C68.3043 13.1773 68.8762 10.8734 69.3931 8.55303C69.5195 7.98118 69.8055 7.53579 70.1904 7.1509C70.5313 6.80998 70.9821 6.70551 71.4605 6.88696C71.9664 7.07392 71.9939 7.4973 71.9939 8.19562Z" fill="#1E1E1E"/>
<path d="M32.3158 17.3123C33.1131 17.4387 34.1743 17.0373 35.142 17.6202C35.9778 18.1261 36.3902 18.8849 36.1263 19.6657C35.8404 20.5234 35.1365 20.9138 34.2898 20.9248C32.8326 20.9358 31.3755 20.8753 29.9239 20.8204C28.8627 20.7764 28.0764 20.0671 28.0599 19.1928C28.0434 18.1865 28.8077 17.3893 29.9184 17.3233C30.6387 17.2738 31.37 17.3123 32.3158 17.3123ZM32.2938 19.7206C32.2993 19.7206 32.5137 19.7041 32.7227 19.7261C33.1241 19.7591 33.476 19.7206 33.509 19.2093C33.542 18.7419 33.2395 18.5439 32.8381 18.5055C32.3873 18.4615 31.9254 18.4615 31.4745 18.456C31.0401 18.4505 30.6662 18.5549 30.6717 19.0938C30.6827 19.6602 31.0456 19.8031 31.535 19.7701C31.7219 19.7591 31.9034 19.7481 32.2938 19.7206Z" fill="#1E1E1E"/>
<path d="M131.565 20.9304C131.934 20.9304 132.297 20.9469 132.665 20.9249C133.622 20.8754 134.353 21.2163 134.688 22.1456C135.04 23.1188 134.738 24.0866 133.875 24.7244C133.495 25.0048 133.429 25.1808 133.737 25.5822C134.199 26.187 134.573 26.8523 134.958 27.5122C135.112 27.7761 135.458 28.1115 135.018 28.3699C134.644 28.5899 134.21 28.4799 133.963 28.106C133.589 27.5507 133.286 26.9513 132.923 26.385C132.544 25.7911 132.148 25.2138 131.318 25.1863C130.68 25.1643 130.334 25.3622 130.361 26.0605C130.389 26.6379 130.367 27.2207 130.345 27.7981C130.334 28.139 130.185 28.3974 129.8 28.4029C129.421 28.4084 129.245 28.161 129.239 27.8201C129.228 25.7196 129.228 23.6137 129.239 21.5132C129.239 21.0953 129.531 20.9414 129.916 20.9359C130.466 20.9359 131.015 20.9359 131.565 20.9304ZM131.928 24.0701C132.005 24.0646 132.308 24.0756 132.61 24.0261C133.198 23.9271 133.688 23.6192 133.682 22.9813C133.677 22.3435 133.187 22.0356 132.593 21.9531C132.203 21.9036 131.802 21.9476 131.411 21.9091C130.625 21.8321 130.317 22.1511 130.35 22.9539C130.394 24.0151 130.422 24.0701 131.928 24.0701Z" fill="#1E1E1E"/>
</svg>
