<svg width="18" height="16" viewBox="0 0 18 16" fill="none" xmlns="http://www.w3.org/2000/svg">
<path d="M14.575 15.06H3.52499C2.76424 15.06 2.14374 14.4694 2.14374 13.7419V5.83125C2.14374 5.72344 2.1873 5.61 2.27443 5.52562C2.27549 5.52375 2.27655 5.52187 2.27868 5.52094L3.98505 3.89156V0.499685C3.98505 0.256873 4.19118 0.0599976 4.44618 0.0599976H13.6538C13.9088 0.0599976 14.1149 0.256873 14.1149 0.499685V3.89156L15.8213 5.52094C15.9084 5.60344 15.9562 5.71687 15.9562 5.83031V13.7419C15.9562 14.4675 15.3368 15.06 14.575 15.06ZM14.3837 14.1806L10.7011 10.665H7.39886L3.71518 14.1806H14.3837ZM3.98505 5.13469L3.25511 5.83125L3.98505 6.52875V5.13469ZM3.06493 6.8925V13.56L6.55736 10.2262L3.06493 6.8925ZM13.1937 4.07344V0.938435H4.90624V4.07344V7.40719L7.39886 9.78656H10.7011L13.1937 7.40719V4.07344ZM14.1149 5.13469V6.52875L14.8449 5.83125L14.1149 5.13469ZM15.0351 6.8925L11.5426 10.2262L15.0351 13.56V6.8925ZM7.81218 6.74531C8.49536 7.16343 9.34218 7.20281 10.1359 6.85406C10.3664 6.75281 10.6406 6.84937 10.7468 7.06969C10.8531 7.29 10.751 7.55156 10.5205 7.65281C9.43461 8.12906 8.26693 8.06812 7.31493 7.48594C6.38311 6.91594 5.82743 5.94656 5.82743 4.89375C5.82743 3.19781 7.27243 1.81781 9.04999 1.81781C10.8275 1.81781 12.2726 3.19781 12.2726 4.89375C12.2726 5.62125 11.6531 6.21187 10.8913 6.21187C10.5386 6.21187 10.2156 6.08437 9.97118 5.87531C9.72574 6.08437 9.4038 6.21187 9.04999 6.21187C8.28818 6.21187 7.66874 5.62125 7.66874 4.89375C7.66874 4.16719 8.28818 3.57562 9.04999 3.57562C9.8118 3.57562 10.4312 4.16719 10.4312 4.89375C10.4312 4.89656 10.4312 4.89844 10.4312 4.90031C10.4429 5.16562 10.6597 5.33344 10.8913 5.33344C11.1452 5.33344 11.3524 5.13656 11.3524 4.89375C11.3524 3.6825 10.3197 2.69625 9.04999 2.69625C7.7803 2.69625 6.74755 3.6825 6.74755 4.89375C6.74755 5.64562 7.14599 6.33844 7.81218 6.74531ZM9.04999 4.45406C8.79605 4.45406 8.58993 4.65187 8.58993 4.89375C8.58993 5.13656 8.79605 5.33344 9.04999 5.33344C9.27843 5.33344 9.46861 5.17312 9.50368 4.96406C9.49943 4.92469 9.50049 4.88344 9.50686 4.84406C9.48136 4.62469 9.28586 4.45406 9.04999 4.45406Z" fill="#3B4964"/>
</svg>
