<svg width="16" height="16" viewBox="0 0 16 16" fill="none" xmlns="http://www.w3.org/2000/svg">
<path d="M13.9675 5.06737C13.8499 2.28884 11.2409 0.0599976 8.05046 0.0599976C4.85909 0.0599976 2.24917 2.28884 2.1325 5.06737C1.13708 5.24972 0.549988 5.91979 0.549988 6.89347V9.49231C0.549988 10.8838 1.70065 11.3777 2.68478 11.3777H3.60023C3.90789 11.3777 4.15815 11.152 4.15815 10.8749V5.52235C4.15815 5.24529 3.90789 5.01869 3.60023 5.01869H3.24929C3.38477 2.81109 5.4857 1.0505 8.05046 1.0505C10.6143 1.0505 12.7152 2.81109 12.8507 5.01869H12.4997C12.1921 5.01869 11.9418 5.24529 11.9418 5.52235V10.8661C11.9418 11.144 12.1921 11.3697 12.4997 11.3697H12.8413C12.7133 12.732 12.0331 13.2189 10.1297 13.3277C10.0987 12.9223 9.71953 12.601 9.25851 12.601H7.27426C6.79348 12.601 6.40114 12.9515 6.40114 13.3817V14.2793C6.40114 14.7095 6.79348 15.06 7.27426 15.06H9.2651C9.72517 15.06 10.1025 14.7396 10.1354 14.3359C11.9296 14.243 13.7727 13.8588 13.9599 11.3228C14.9601 11.1423 15.55 10.4713 15.55 9.49497V6.89612C15.55 5.92067 14.9629 5.24883 13.9675 5.06737ZM14.4511 6.9032L14.4351 9.49231C14.4351 10.0747 14.0917 10.3704 13.4143 10.3704H13.0567V6.02601H13.4302C14.1077 6.02601 14.4511 6.32165 14.4511 6.9032ZM2.66973 6.00742H3.04324V10.3624H2.66973C1.99231 10.3624 1.6489 10.0668 1.6489 9.48346V6.8855C1.6489 6.30306 1.99231 6.00742 2.66973 6.00742ZM9.0233 13.6119V14.0553H7.51605V13.6119H9.0233Z" fill="#3B4964"/>
</svg>
