<svg width="16" height="28" viewBox="0 0 16 28" fill="none" xmlns="http://www.w3.org/2000/svg">
<path d="M13.6643 16.7726C12.8581 15.9675 11.9196 15.3574 10.8705 14.956C12.0325 14.0574 12.7076 12.6731 12.6905 11.2009C12.6768 9.95679 12.1762 8.78909 11.2787 7.91218C10.3927 7.04553 9.22956 6.57001 8.00028 6.57001C7.97975 6.57001 7.95923 6.57001 7.93756 6.57001C5.3855 6.60422 3.30781 8.70471 3.30781 11.2545C3.30781 12.705 3.98403 14.07 5.12892 14.956C4.07982 15.3574 3.14132 15.9675 2.33511 16.7726C0.996357 18.109 0.171897 19.8765 0.0156716 21.7501C-0.00257376 21.9611 0.0692672 22.1698 0.210668 22.326C0.35321 22.4811 0.556189 22.57 0.770571 22.57C1.16513 22.57 1.48784 22.2712 1.52205 21.8755C1.80371 18.5458 4.64884 15.9378 7.99914 15.9378C11.3506 15.9378 14.1957 18.5458 14.4785 21.8755C14.5116 22.2712 14.8354 22.57 15.2334 22.57C15.4432 22.57 15.6451 22.4811 15.7876 22.3271C15.9301 22.172 16.0008 21.9622 15.9849 21.7512C15.8275 19.8765 15.0031 18.109 13.6643 16.7726ZM11.1784 11.1484C11.2069 12.0345 10.8785 12.8669 10.2513 13.4952C9.62297 14.1247 8.80307 14.4508 7.89423 14.428C6.22478 14.3733 4.87463 13.0254 4.81989 11.3594C4.79138 10.4745 5.1198 9.64206 5.74698 9.01374C6.3753 8.38314 7.19748 8.04788 8.10519 8.08095C9.77463 8.13454 11.1248 9.48242 11.1784 11.1484Z" fill="#3B4964"/>
</svg>
